<svg width="440" height="266" viewBox="0 0 440 266" fill="none" xmlns="http://www.w3.org/2000/svg">
<g clip-path="url(#clip0_137_562)">
<rect y="3.05176e-05" width="440" height="266" rx="6" fill="#F2F7FC"/>
<path fill-rule="evenodd" clip-rule="evenodd" d="M384.348 221.087V222.932C384.348 224.62 385.721 226 387.399 226H391.549C393.226 226 394.599 224.62 394.599 222.932V220.261C395.257 219.375 396 217.563 396 213.903C396 208.704 396 200.461 396 197.249C396 194.466 392.67 192.29 387.465 190.721C387.342 190.279 387.218 189.85 387.094 189.431H394.056C396.564 189.431 395.629 184.723 392.273 184.723H388.853V187.45H386.469C382.644 176.063 377.664 175 361 175C344.336 175 339.356 176.063 335.531 187.45H333.147V184.723H329.727C326.371 184.723 325.436 189.431 327.944 189.431H334.906C334.782 189.85 334.658 190.279 334.535 190.721C329.33 192.29 326 194.466 326 197.249C326 200.461 326 208.704 326 213.903C326 217.563 326.743 219.375 327.401 220.261V222.932C327.401 224.62 328.774 226 330.451 226H334.601C336.279 226 337.652 224.62 337.652 222.932V221.087C353.217 221.087 368.783 221.087 384.348 221.087ZM387.54 209.847C384.949 210.544 380.012 211.477 376.639 209.583C372.836 207.448 378.406 201.597 387.189 201.302C390.677 201.187 390.838 208.959 387.54 209.847ZM334.46 209.847C337.051 210.544 341.987 211.477 345.361 209.583C349.164 207.448 343.594 201.597 334.81 201.302C331.323 201.187 331.162 208.959 334.46 209.847ZM339.111 191.923H383.144C382.71 190.293 379.845 179.91 372.155 179.884C371.436 179.882 351.01 179.885 350.236 179.885C344.551 179.885 341.036 184.695 339.111 191.923Z" fill="#579D45"/>
<path d="M59.888 78.384C65.424 78.384 68.912 75.44 68.912 70.832C68.912 66.544 65.648 63.888 62.032 63.888C60.144 63.888 58.48 64.592 57.456 65.584V61.456H67.44V56.656H51.952V69.264L55.76 70.192C56.944 69.072 58.288 68.592 59.984 68.592C62.192 68.592 63.312 69.616 63.312 71.056C63.312 72.368 62.16 73.52 59.824 73.52C57.776 73.52 55.76 72.784 54.288 71.44L51.28 75.28C53.264 77.232 56.112 78.384 59.888 78.384ZM79.734 78.384C85.974 78.384 88.886 72.976 88.886 67.344C88.886 61.712 85.974 56.336 79.734 56.336C73.494 56.336 70.582 61.712 70.582 67.344C70.582 72.976 73.494 78.384 79.734 78.384ZM79.734 73.52C77.174 73.52 76.15 71.12 76.15 67.344C76.15 63.568 77.174 61.2 79.734 61.2C82.294 61.2 83.318 63.568 83.318 67.344C83.318 71.12 82.294 73.52 79.734 73.52ZM99.7028 78.384C105.943 78.384 108.855 72.976 108.855 67.344C108.855 61.712 105.943 56.336 99.7028 56.336C93.4628 56.336 90.5508 61.712 90.5508 67.344C90.5508 72.976 93.4628 78.384 99.7028 78.384ZM99.7028 73.52C97.1428 73.52 96.1188 71.12 96.1188 67.344C96.1188 63.568 97.1428 61.2 99.7028 61.2C102.263 61.2 103.287 63.568 103.287 67.344C103.287 71.12 102.263 73.52 99.7028 73.52Z" fill="#579D45"/>
<path d="M64.616 117V105.408H61.304L58.136 112.896L54.92 105.408H51.632V117H54.152V108.936L57.632 117H58.64L62.096 108.936V117H64.616ZM77.4742 117V109.32C77.4742 106.2 75.2182 105.12 72.6502 105.12C70.8022 105.12 69.1222 105.72 67.7782 106.992L68.8102 108.744C69.8182 107.76 70.9462 107.28 72.2422 107.28C73.8502 107.28 74.9542 108.096 74.9542 109.44V111.168C74.1142 110.184 72.7702 109.68 71.2102 109.68C69.3142 109.68 67.1782 110.784 67.1782 113.448C67.1782 116.016 69.3142 117.288 71.2102 117.288C72.7462 117.288 74.0902 116.736 74.9542 115.752V117H77.4742ZM72.1942 115.56C70.7782 115.56 69.7222 114.744 69.7222 113.496C69.7222 112.224 70.7782 111.408 72.1942 111.408C73.2982 111.408 74.3782 111.816 74.9542 112.608V114.36C74.3782 115.152 73.2982 115.56 72.1942 115.56ZM93.9414 105.408V114.792H89.8614V105.408H87.3414V114.792H83.2614V105.408H80.7414V117H96.4614V105.408H93.9414ZM102.15 117L107.574 108.984V117H110.094V105.408H107.574L102.246 113.208V105.408H99.7258V117H102.15ZM115.886 117V112.176H121.214V117H123.734V105.408H121.214V109.968H115.886V105.408H113.366V117H115.886ZM132.239 117.288C135.959 117.288 138.215 114.528 138.215 111.192C138.215 107.88 135.959 105.12 132.239 105.12C128.567 105.12 126.287 107.88 126.287 111.192C126.287 114.528 128.567 117.288 132.239 117.288ZM132.239 115.056C130.103 115.056 128.903 113.256 128.903 111.192C128.903 109.152 130.103 107.352 132.239 107.352C134.399 107.352 135.599 109.152 135.599 111.192C135.599 113.256 134.399 115.056 132.239 115.056ZM153.749 117V105.408H150.437L147.269 112.896L144.053 105.408H140.765V117H143.285V108.936L146.765 117H147.773L151.229 108.936V117H153.749ZM162.359 117.288C164.207 117.288 165.911 116.712 167.063 115.608L165.911 113.952C165.095 114.768 163.751 115.224 162.623 115.224C160.439 115.224 159.119 113.784 158.927 112.032H167.879V111.432C167.879 107.784 165.647 105.12 162.167 105.12C158.735 105.12 156.287 107.832 156.287 111.192C156.287 114.864 158.879 117.288 162.359 117.288ZM165.431 110.256H158.903C159.023 108.84 160.007 107.184 162.167 107.184C164.447 107.184 165.383 108.888 165.431 110.256ZM175.646 117.288C177.902 117.288 179.27 116.328 180.086 115.224L178.43 113.688C177.782 114.576 176.894 115.056 175.766 115.056C173.654 115.056 172.262 113.448 172.262 111.192C172.262 108.936 173.654 107.352 175.766 107.352C176.894 107.352 177.782 107.808 178.43 108.72L180.086 107.184C179.27 106.08 177.902 105.12 175.646 105.12C172.118 105.12 169.646 107.688 169.646 111.192C169.646 114.72 172.118 117.288 175.646 117.288ZM186.928 117V107.616H190.264V105.408H181.096V107.616H184.408V117H186.928Z" fill="#868FA4"/>
</g>
<defs>
<clipPath id="clip0_137_562">
<rect width="440" height="266" fill="white"/>
</clipPath>
</defs>
</svg>
