<svg width="440" height="266" viewBox="0 0 440 266" fill="none" xmlns="http://www.w3.org/2000/svg">
<g clip-path="url(#clip0_137_530)">
<rect y="9.15527e-05" width="440" height="266" rx="6" fill="#F2F7FC"/>
<path d="M51.92 56.6561V78.0001H62.8C67.504 78.0001 70.032 74.8321 70.032 71.0881C70.032 67.3441 67.504 64.2081 62.8 64.2081H57.424V61.4561H68.592V56.6561H51.92ZM62.128 69.0081C63.44 69.0081 64.432 69.7761 64.432 71.0881C64.432 72.4321 63.44 73.2001 62.128 73.2001H57.424V69.0081H62.128ZM79.7465 78.3841C85.0585 78.3841 88.1945 74.6081 88.1945 70.2561C88.1945 65.9041 85.0585 62.1601 79.7465 62.1601C74.4985 62.1601 71.3305 65.9041 71.3305 70.2561C71.3305 74.6081 74.4985 78.3841 79.7465 78.3841ZM79.7465 74.0321C77.6025 74.0321 76.4185 72.3361 76.4185 70.2561C76.4185 68.2081 77.6025 66.5121 79.7465 66.5121C81.9225 66.5121 83.1385 68.2081 83.1385 70.2561C83.1385 72.3361 81.9225 74.0321 79.7465 74.0321ZM89.576 78.3841C94.12 78.3841 96.104 75.6641 96.744 70.6081L97.224 66.8321H101.256V78.0001H106.184V62.5441H92.968L91.944 69.9681C91.496 73.3281 90.728 74.3521 89.576 74.3521V78.3841ZM117.185 78.3841C119.553 78.3841 122.113 77.7121 123.649 76.3361L121.569 73.2641C120.705 74.0961 118.817 74.5761 117.729 74.5761C115.489 74.5761 114.145 73.2641 113.857 71.8241H124.865V70.7681C124.865 65.5201 121.537 62.1601 116.961 62.1601C112.129 62.1601 108.737 65.7761 108.737 70.2561C108.737 75.2801 112.417 78.3841 117.185 78.3841ZM120.161 68.6241H113.793C113.985 67.5041 114.817 65.9681 116.961 65.9681C119.233 65.9681 120.033 67.5361 120.161 68.6241ZM134.716 78.3841C137.084 78.3841 139.644 77.7121 141.18 76.3361L139.1 73.2641C138.236 74.0961 136.348 74.5761 135.26 74.5761C133.02 74.5761 131.676 73.2641 131.388 71.8241H142.396V70.7681C142.396 65.5201 139.068 62.1601 134.492 62.1601C129.66 62.1601 126.268 65.7761 126.268 70.2561C126.268 75.2801 129.948 78.3841 134.716 78.3841ZM137.692 68.6241H131.324C131.516 67.5041 132.348 65.9681 134.492 65.9681C136.764 65.9681 137.564 67.5361 137.692 68.6241ZM169.363 78.0001V73.2001H161.555C166.867 69.4881 169.203 66.7041 169.203 63.4401C169.203 59.1521 165.587 56.3361 160.563 56.3361C157.587 56.3361 154.195 57.3921 151.923 59.8881L154.963 63.5361C156.499 62.0961 158.291 61.2001 160.659 61.2001C162.227 61.2001 163.603 61.9681 163.603 63.4401C163.603 65.5521 161.875 67.0241 152.627 73.7121V78.0001H169.363ZM180.64 78.3841C186.88 78.3841 189.792 72.9761 189.792 67.3441C189.792 61.7121 186.88 56.3361 180.64 56.3361C174.4 56.3361 171.488 61.7121 171.488 67.3441C171.488 72.9761 174.4 78.3841 180.64 78.3841ZM180.64 73.5201C178.08 73.5201 177.056 71.1201 177.056 67.3441C177.056 63.5681 178.08 61.2001 180.64 61.2001C183.2 61.2001 184.224 63.5681 184.224 67.3441C184.224 71.1201 183.2 73.5201 180.64 73.5201Z" fill="#579D45"/>
<path d="M62.48 117L57.56 110.664L62.384 105.408H59.264L54.152 111V105.408H51.632V117H54.152V113.88L55.76 112.224L59.312 117H62.48ZM73.8648 117V109.32C73.8648 106.2 71.6088 105.12 69.0408 105.12C67.1928 105.12 65.5128 105.72 64.1688 106.992L65.2008 108.744C66.2088 107.76 67.3368 107.28 68.6328 107.28C70.2408 107.28 71.3448 108.096 71.3448 109.44V111.168C70.5048 110.184 69.1608 109.68 67.6008 109.68C65.7048 109.68 63.5688 110.784 63.5688 113.448C63.5688 116.016 65.7048 117.288 67.6008 117.288C69.1368 117.288 70.4808 116.736 71.3448 115.752V117H73.8648ZM68.5848 115.56C67.1688 115.56 66.1128 114.744 66.1128 113.496C66.1128 112.224 67.1688 111.408 68.5848 111.408C69.6888 111.408 70.7688 111.816 71.3448 112.608V114.36C70.7688 115.152 69.6888 115.56 68.5848 115.56ZM90.116 117V105.408H86.804L83.636 112.896L80.42 105.408H77.132V117H79.652V108.936L83.132 117H84.14L87.596 108.936V117H90.116ZM98.7262 117.288C100.574 117.288 102.278 116.712 103.43 115.608L102.278 113.952C101.462 114.768 100.118 115.224 98.9902 115.224C96.8062 115.224 95.4862 113.784 95.2942 112.032H104.246V111.432C104.246 107.784 102.014 105.12 98.5342 105.12C95.1022 105.12 92.6542 107.832 92.6542 111.192C92.6542 114.864 95.2462 117.288 98.7262 117.288ZM101.798 110.256H95.2702C95.3902 108.84 96.3742 107.184 98.5342 107.184C100.814 107.184 101.75 108.888 101.798 110.256ZM112.974 117.288C115.974 117.288 118.11 115.008 118.11 111.192C118.11 107.376 115.974 105.12 112.974 105.12C111.462 105.12 110.118 105.84 109.254 106.992V105.408H106.734V121.416H109.254V115.392C110.19 116.64 111.51 117.288 112.974 117.288ZM112.23 115.056C111.054 115.056 109.806 114.336 109.254 113.496V108.912C109.806 108.048 111.054 107.352 112.23 107.352C114.222 107.352 115.494 108.96 115.494 111.192C115.494 113.448 114.222 115.056 112.23 115.056ZM129.197 117L134.621 108.984V117H137.141V105.408H134.621L129.293 113.208V105.408H126.773V117H129.197ZM156.945 117V105.408H146.577V117H149.097V107.616H154.425V117H156.945ZM165.57 117.288C167.418 117.288 169.122 116.712 170.274 115.608L169.122 113.952C168.306 114.768 166.962 115.224 165.834 115.224C163.65 115.224 162.33 113.784 162.138 112.032H171.09V111.432C171.09 107.784 168.858 105.12 165.378 105.12C161.946 105.12 159.498 107.832 159.498 111.192C159.498 114.864 162.09 117.288 165.57 117.288ZM168.642 110.256H162.114C162.234 108.84 163.218 107.184 165.378 107.184C167.658 107.184 168.594 108.888 168.642 110.256ZM179.817 117.288C182.817 117.288 184.953 115.008 184.953 111.192C184.953 107.376 182.817 105.12 179.817 105.12C178.305 105.12 176.961 105.84 176.097 106.992V105.408H173.577V121.416H176.097V115.392C177.033 116.64 178.353 117.288 179.817 117.288ZM179.073 115.056C177.897 115.056 176.649 114.336 176.097 113.496V108.912C176.649 108.048 177.897 107.352 179.073 107.352C181.065 107.352 182.337 108.96 182.337 111.192C182.337 113.448 181.065 115.056 179.073 115.056ZM189.876 117L195.3 108.984V117H197.82V105.408H195.3L189.972 113.208V105.408H187.452V117H189.876ZM214.077 117V105.408H210.765L207.597 112.896L204.381 105.408H201.093V117H203.613V108.936L207.093 117H208.101L211.557 108.936V117H214.077ZM222.687 117.288C224.535 117.288 226.239 116.712 227.391 115.608L226.239 113.952C225.423 114.768 224.079 115.224 222.951 115.224C220.767 115.224 219.447 113.784 219.255 112.032H228.207V111.432C228.207 107.784 225.975 105.12 222.495 105.12C219.063 105.12 216.615 107.832 216.615 111.192C216.615 114.864 219.207 117.288 222.687 117.288ZM225.759 110.256H219.231C219.351 108.84 220.335 107.184 222.495 107.184C224.775 107.184 225.711 108.888 225.759 110.256ZM235.327 117V107.616H238.663V105.408H229.495V107.616H232.807V117H235.327ZM246.966 117.288C249.966 117.288 252.102 115.008 252.102 111.192C252.102 107.376 249.966 105.12 246.966 105.12C245.454 105.12 244.11 105.84 243.246 106.992V105.408H240.726V121.416H243.246V115.392C244.182 116.64 245.502 117.288 246.966 117.288ZM246.222 115.056C245.046 115.056 243.798 114.336 243.246 113.496V108.912C243.798 108.048 245.046 107.352 246.222 107.352C248.214 107.352 249.486 108.96 249.486 111.192C249.486 113.448 248.214 115.056 246.222 115.056ZM264.201 117V109.32C264.201 106.2 261.945 105.12 259.377 105.12C257.529 105.12 255.849 105.72 254.505 106.992L255.537 108.744C256.545 107.76 257.673 107.28 258.969 107.28C260.577 107.28 261.681 108.096 261.681 109.44V111.168C260.841 110.184 259.497 109.68 257.937 109.68C256.041 109.68 253.905 110.784 253.905 113.448C253.905 116.016 256.041 117.288 257.937 117.288C259.473 117.288 260.817 116.736 261.681 115.752V117H264.201ZM258.921 115.56C257.505 115.56 256.449 114.744 256.449 113.496C256.449 112.224 257.505 111.408 258.921 111.408C260.025 111.408 261.105 111.816 261.681 112.608V114.36C261.105 115.152 260.025 115.56 258.921 115.56ZM266.268 117.288C268.812 117.288 270.252 115.536 270.708 111.336L271.116 107.616H275.316V117H277.836V105.408H268.884L268.188 111.048C267.804 114.096 267.252 115.224 266.268 115.224V117.288ZM281.109 105.408V117H287.733C290.229 117 291.573 115.296 291.573 113.304C291.573 111.312 290.301 109.608 287.733 109.608H283.629V105.408H281.109ZM287.421 111.816C288.429 111.816 289.005 112.44 289.005 113.304C289.005 114.168 288.429 114.792 287.421 114.792H283.629V111.816H287.421ZM296.59 117V112.176H301.918V117H304.438V105.408H301.918V109.968H296.59V105.408H294.07V117H296.59ZM317.31 117V109.32C317.31 106.2 315.054 105.12 312.486 105.12C310.638 105.12 308.958 105.72 307.614 106.992L308.646 108.744C309.654 107.76 310.782 107.28 312.078 107.28C313.686 107.28 314.79 108.096 314.79 109.44V111.168C313.95 110.184 312.606 109.68 311.046 109.68C309.15 109.68 307.014 110.784 307.014 113.448C307.014 116.016 309.15 117.288 311.046 117.288C312.582 117.288 313.926 116.736 314.79 115.752V117H317.31ZM312.03 115.56C310.614 115.56 309.558 114.744 309.558 113.496C309.558 112.224 310.614 111.408 312.03 111.408C313.134 111.408 314.214 111.816 314.79 112.608V114.36C314.214 115.152 313.134 115.56 312.03 115.56ZM323.049 117L325.593 112.8H328.257V117H330.777V105.408H324.153C321.657 105.408 320.313 107.112 320.313 109.104C320.313 111.096 321.513 112.344 323.025 112.68L320.169 117H323.049ZM324.465 110.592C323.457 110.592 322.881 109.968 322.881 109.104C322.881 108.24 323.505 107.616 324.465 107.616H328.257V110.592H324.465ZM56.864 149.288C60.584 149.288 62.84 146.528 62.84 143.192C62.84 139.88 60.584 137.12 56.864 137.12C53.192 137.12 50.912 139.88 50.912 143.192C50.912 146.528 53.192 149.288 56.864 149.288ZM56.864 147.056C54.728 147.056 53.528 145.256 53.528 143.192C53.528 141.152 54.728 139.352 56.864 139.352C59.024 139.352 60.224 141.152 60.224 143.192C60.224 145.256 59.024 147.056 56.864 147.056ZM74.6981 149L70.4261 143.048L74.4341 137.408H71.6021L68.8661 141.344L66.1061 137.408H63.2741L67.2821 143.048L63.0341 149H65.8421L68.8661 144.728L71.8661 149H74.6981ZM82.6923 149.288C85.6923 149.288 87.8283 147.008 87.8283 143.192C87.8283 139.376 85.6923 137.12 82.6923 137.12C81.1803 137.12 79.8363 137.84 78.9723 138.992V137.408H76.4523V153.416H78.9723V147.392C79.9083 148.64 81.2283 149.288 82.6923 149.288ZM81.9483 147.056C80.7723 147.056 79.5243 146.336 78.9723 145.496V140.912C79.5243 140.048 80.7723 139.352 81.9483 139.352C83.9403 139.352 85.2123 140.96 85.2123 143.192C85.2123 145.448 83.9403 147.056 81.9483 147.056ZM99.9273 149V141.32C99.9273 138.2 97.6713 137.12 95.1033 137.12C93.2553 137.12 91.5753 137.72 90.2313 138.992L91.2633 140.744C92.2713 139.76 93.3993 139.28 94.6953 139.28C96.3033 139.28 97.4073 140.096 97.4073 141.44V143.168C96.5673 142.184 95.2233 141.68 93.6633 141.68C91.7673 141.68 89.6313 142.784 89.6313 145.448C89.6313 148.016 91.7673 149.288 93.6633 149.288C95.1993 149.288 96.5433 148.736 97.4073 147.752V149H99.9273ZM94.6473 147.56C93.2313 147.56 92.1753 146.744 92.1753 145.496C92.1753 144.224 93.2313 143.408 94.6473 143.408C95.7513 143.408 96.8313 143.816 97.4073 144.608V146.36C96.8313 147.152 95.7513 147.56 94.6473 147.56ZM105.715 149V144.176H111.043V149H113.562V137.408H111.043V141.968H105.715V137.408H103.195V149H105.715ZM119.355 149V144.176H124.683V149H127.203V137.408H124.683V141.968H119.355V137.408H116.835V149H119.355ZM140.076 149V141.32C140.076 138.2 137.82 137.12 135.252 137.12C133.404 137.12 131.724 137.72 130.38 138.992L131.412 140.744C132.42 139.76 133.548 139.28 134.844 139.28C136.452 139.28 137.556 140.096 137.556 141.44V143.168C136.716 142.184 135.372 141.68 133.812 141.68C131.916 141.68 129.78 142.784 129.78 145.448C129.78 148.016 131.916 149.288 133.812 149.288C135.348 149.288 136.692 148.736 137.556 147.752V149H140.076ZM134.796 147.56C133.38 147.56 132.324 146.744 132.324 145.496C132.324 144.224 133.38 143.408 134.796 143.408C135.9 143.408 136.98 143.816 137.556 144.608V146.36C136.98 147.152 135.9 147.56 134.796 147.56ZM145.815 149L148.359 144.8H151.023V149H153.543V137.408H146.919C144.423 137.408 143.079 139.112 143.079 141.104C143.079 143.096 144.279 144.344 145.791 144.68L142.935 149H145.815ZM147.231 142.592C146.223 142.592 145.647 141.968 145.647 141.104C145.647 140.24 146.271 139.616 147.231 139.616H151.023V142.592H147.231ZM168.24 149.288C170.496 149.288 171.864 148.328 172.68 147.224L171.024 145.688C170.376 146.576 169.488 147.056 168.36 147.056C166.248 147.056 164.856 145.448 164.856 143.192C164.856 140.936 166.248 139.352 168.36 139.352C169.488 139.352 170.376 139.808 171.024 140.72L172.68 139.184C171.864 138.08 170.496 137.12 168.24 137.12C164.712 137.12 162.24 139.688 162.24 143.192C162.24 146.72 164.712 149.288 168.24 149.288ZM177.314 149L182.738 140.984V149H185.258V137.408H182.738L177.41 145.208V137.408H174.89V149H177.314ZM197.314 137.408H188.53V149H191.05V139.616H197.314V137.408ZM201.902 149V144.176H207.23V149H209.75V137.408H207.23V141.968H201.902V137.408H199.382V149H201.902ZM222.623 149V141.32C222.623 138.2 220.367 137.12 217.799 137.12C215.951 137.12 214.271 137.72 212.927 138.992L213.959 140.744C214.967 139.76 216.095 139.28 217.391 139.28C218.999 139.28 220.103 140.096 220.103 141.44V143.168C219.263 142.184 217.919 141.68 216.359 141.68C214.463 141.68 212.327 142.784 212.327 145.448C212.327 148.016 214.463 149.288 216.359 149.288C217.895 149.288 219.239 148.736 220.103 147.752V149H222.623ZM217.343 147.56C215.927 147.56 214.871 146.744 214.871 145.496C214.871 144.224 215.927 143.408 217.343 143.408C218.447 143.408 219.527 143.816 220.103 144.608V146.36C219.527 147.152 218.447 147.56 217.343 147.56ZM224.69 149.288C227.234 149.288 228.674 147.536 229.13 143.336L229.538 139.616H233.738V149H236.258V137.408H227.306L226.61 143.048C226.226 146.096 225.674 147.224 224.69 147.224V149.288ZM241.954 149L247.378 140.984V149H249.898V137.408H247.378L242.05 145.208V137.408H239.53V149H241.954ZM257.347 149.288C260.755 149.288 262.819 147.848 262.819 145.856C262.819 144.032 260.899 143.168 259.507 143.072C260.971 142.856 262.579 141.872 262.579 140.288C262.579 138.32 260.467 137.12 257.059 137.144C254.947 137.144 253.315 137.912 252.211 139.04L253.459 140.576C254.395 139.64 255.619 139.184 257.179 139.184C258.787 139.184 259.963 139.784 259.963 140.624C259.963 141.632 258.859 142.136 257.131 142.136H254.659V144.152H257.131C258.907 144.152 260.179 144.56 260.179 145.664C260.179 146.6 259.123 147.224 257.347 147.224C255.811 147.224 254.275 146.768 253.195 145.808L252.019 147.416C253.171 148.544 254.971 149.288 257.347 149.288ZM274.959 149V141.32C274.959 138.2 272.703 137.12 270.135 137.12C268.287 137.12 266.607 137.72 265.263 138.992L266.295 140.744C267.303 139.76 268.431 139.28 269.727 139.28C271.335 139.28 272.439 140.096 272.439 141.44V143.168C271.599 142.184 270.255 141.68 268.695 141.68C266.799 141.68 264.663 142.784 264.663 145.448C264.663 148.016 266.799 149.288 268.695 149.288C270.231 149.288 271.575 148.736 272.439 147.752V149H274.959ZM269.679 147.56C268.263 147.56 267.207 146.744 267.207 145.496C267.207 144.224 268.263 143.408 269.679 143.408C270.783 143.408 271.863 143.816 272.439 144.608V146.36C271.863 147.152 270.783 147.56 269.679 147.56ZM287.346 151.952H289.866V146.792H288.594V137.408H286.074V146.792H280.746V137.408H278.226V149H287.346V151.952ZM294.361 149L299.785 140.984V149H302.305V137.408H299.785L294.457 145.208V137.408H291.937V149H294.361ZM308.049 149L310.593 144.8H313.257V149H315.777V137.408H309.153C306.657 137.408 305.313 139.112 305.313 141.104C305.313 143.096 306.513 144.344 308.025 144.68L305.169 149H308.049ZM309.465 142.592C308.457 142.592 307.881 141.968 307.881 141.104C307.881 140.24 308.505 139.616 309.465 139.616H313.257V142.592H309.465Z" fill="#868FA4"/>
</g>
<defs>
<clipPath id="clip0_137_530">
<rect width="440" height="266" fill="white"/>
</clipPath>
</defs>
</svg>
