<svg width="440" height="266" viewBox="0 0 440 266" fill="none" xmlns="http://www.w3.org/2000/svg">
<g clip-path="url(#clip0_137_549)">
<rect y="3.05176e-05" width="440" height="266" rx="6" fill="#F2F7FC"/>
<g clip-path="url(#clip1_137_549)">
<path d="M365 194.203C370.913 194.203 375.706 189.402 375.706 183.479C375.706 177.557 370.913 172.756 365 172.756C359.087 172.756 354.294 177.557 354.294 183.479C354.294 189.402 359.087 194.203 365 194.203Z" fill="#579D45"/>
<path d="M389.041 193.921C393.45 193.921 397.024 190.341 397.024 185.925C397.024 181.509 393.45 177.93 389.041 177.93C384.633 177.93 381.059 181.509 381.059 185.925C381.059 190.341 384.633 193.921 389.041 193.921Z" fill="#579D45"/>
<path d="M404.913 212.827C403.317 202.763 398.058 196.742 389.042 196.742C385.567 196.742 382.75 197.589 380.402 199.282C380.684 199.564 380.965 199.847 381.341 200.129C385.191 204.174 387.821 210.006 389.042 217.437C389.042 217.719 389.136 218.001 389.136 218.189C397.87 218.283 405.571 216.778 404.913 212.827Z" fill="#579D45"/>
<path d="M340.958 193.921C345.367 193.921 348.941 190.341 348.941 185.925C348.941 181.509 345.367 177.93 340.958 177.93C336.55 177.93 332.976 181.509 332.976 185.925C332.976 190.341 336.55 193.921 340.958 193.921Z" fill="#579D45"/>
<path d="M348.753 200.129C349.035 199.847 349.316 199.564 349.598 199.282C347.25 197.589 344.339 196.742 340.958 196.742C332.036 196.742 326.777 202.669 325.087 212.827C324.43 216.778 332.224 218.283 340.958 218.283C340.958 218.001 340.958 217.719 341.052 217.531C342.179 210.1 344.809 204.268 348.753 200.129Z" fill="#579D45"/>
<path d="M365 225.244C353.261 225.244 342.931 223.175 343.776 218.001C346.03 204.456 353.073 196.554 365 196.554C376.927 196.554 383.971 204.55 386.224 218.001C387.07 223.175 376.739 225.244 365 225.244Z" fill="#579D45"/>
</g>
<path d="M64.4 78C68.592 78 70.672 75.312 70.672 72.208C70.672 69.52 68.88 67.344 66.608 66.992C68.624 66.544 70.256 64.752 70.256 62.096C70.256 59.408 68.24 56.656 64.016 56.656H51.92V78H64.4ZM62.768 64.848H57.424V61.296H62.768C63.888 61.296 64.656 62.032 64.656 63.056C64.656 64.112 63.888 64.848 62.768 64.848ZM62.96 73.36H57.424V69.52H62.96C64.304 69.52 65.072 70.384 65.072 71.44C65.072 72.592 64.272 73.36 62.96 73.36ZM80.966 78.384C83.334 78.384 85.894 77.712 87.43 76.336L85.35 73.264C84.486 74.096 82.598 74.576 81.51 74.576C79.27 74.576 77.926 73.264 77.638 71.824H88.646V70.768C88.646 65.52 85.318 62.16 80.742 62.16C75.91 62.16 72.518 65.776 72.518 70.256C72.518 75.28 76.198 78.384 80.966 78.384ZM83.942 68.624H77.574C77.766 67.504 78.598 65.968 80.742 65.968C83.014 65.968 83.814 67.536 83.942 68.624ZM95.1693 78L98.5613 72.528L99.1693 73.264V78H104.097V73.264L104.705 72.528L108.097 78H114.177L108.193 69.584L113.889 62.544H107.937L104.097 67.6V62.544H99.1693V67.6L95.3293 62.544H89.3773L95.0733 69.584L89.0892 78H95.1693ZM114.576 78.384C119.12 78.384 121.104 75.664 121.744 70.608L122.224 66.832H126.256V78H131.184V62.544H117.968L116.944 69.968C116.496 73.328 115.728 74.352 114.576 74.352V78.384ZM139.465 78L145.225 69.488V78H150.153V62.544H145.193L139.689 70.64V62.544H134.761V78H139.465ZM164.514 78C167.81 78 169.442 76.048 169.442 73.776C169.442 71.888 168.194 70.384 166.434 70.032C167.938 69.584 169.09 68.336 169.09 66.512C169.09 64.56 167.522 62.544 164.226 62.544H153.73V78H164.514ZM163.266 74.192H158.658V72.048H163.266C164.002 72.048 164.482 72.528 164.482 73.136C164.482 73.776 163.97 74.192 163.266 74.192ZM163.074 68.272H158.658V66.352H163.074C163.714 66.352 164.13 66.736 164.13 67.312C164.13 67.856 163.714 68.272 163.074 68.272ZM172.98 62.544V78H182.996C186.58 78 188.628 75.568 188.628 72.752C188.628 69.904 186.74 67.504 182.996 67.504H177.908V62.544H172.98ZM182.132 71.472C183.06 71.472 183.636 72.016 183.636 72.752C183.636 73.488 183.06 74.032 182.132 74.032H177.908V71.472H182.132ZM195.22 78V62.544H190.292V78H195.22ZM203.496 78L209.256 69.488V78H214.184V62.544H209.224L203.72 70.64V62.544H198.792V78H203.496ZM212.104 58.288L209.992 56.56C209.192 57.744 207.976 58.416 206.504 58.416C204.968 58.416 203.784 57.648 202.984 56.56L200.872 58.288C202.184 60.016 204.232 61.104 206.504 61.104C208.808 61.104 210.824 60.016 212.104 58.288Z" fill="#579D45"/>
<path d="M62 117V105.408H51.632V117H54.152V107.616H59.48V117H62ZM70.6246 117.288C72.4726 117.288 74.1766 116.712 75.3286 115.608L74.1766 113.952C73.3606 114.768 72.0166 115.224 70.8886 115.224C68.7046 115.224 67.3846 113.784 67.1926 112.032H76.1446V111.432C76.1446 107.784 73.9126 105.12 70.4326 105.12C67.0006 105.12 64.5526 107.832 64.5526 111.192C64.5526 114.864 67.1446 117.288 70.6246 117.288ZM73.6966 110.256H67.1686C67.2886 108.84 68.2726 107.184 70.4326 107.184C72.7126 107.184 73.6486 108.888 73.6966 110.256ZM84.872 117.288C87.872 117.288 90.008 115.008 90.008 111.192C90.008 107.376 87.872 105.12 84.872 105.12C83.36 105.12 82.016 105.84 81.152 106.992V105.408H78.632V121.416H81.152V115.392C82.088 116.64 83.408 117.288 84.872 117.288ZM84.128 115.056C82.952 115.056 81.704 114.336 81.152 113.496V108.912C81.704 108.048 82.952 107.352 84.128 107.352C86.12 107.352 87.392 108.96 87.392 111.192C87.392 113.448 86.12 115.056 84.128 115.056ZM97.787 117.288C100.043 117.288 101.411 116.328 102.227 115.224L100.571 113.688C99.923 114.576 99.035 115.056 97.907 115.056C95.795 115.056 94.403 113.448 94.403 111.192C94.403 108.936 95.795 107.352 97.907 107.352C99.035 107.352 99.923 107.808 100.571 108.72L102.227 107.184C101.411 106.08 100.043 105.12 97.787 105.12C94.259 105.12 91.787 107.688 91.787 111.192C91.787 114.72 94.259 117.288 97.787 117.288ZM109.669 117.288C113.389 117.288 115.645 114.528 115.645 111.192C115.645 107.88 113.389 105.12 109.669 105.12C105.997 105.12 103.717 107.88 103.717 111.192C103.717 114.528 105.997 117.288 109.669 117.288ZM109.669 115.056C107.533 115.056 106.333 113.256 106.333 111.192C106.333 109.152 107.533 107.352 109.669 107.352C111.829 107.352 113.029 109.152 113.029 111.192C113.029 113.256 111.829 115.056 109.669 115.056ZM120.715 117V112.176H126.043V117H128.562V105.408H126.043V109.968H120.715V105.408H118.195V117H120.715ZM141.435 117V109.32C141.435 106.2 139.179 105.12 136.611 105.12C134.763 105.12 133.083 105.72 131.739 106.992L132.771 108.744C133.779 107.76 134.907 107.28 136.203 107.28C137.811 107.28 138.915 108.096 138.915 109.44V111.168C138.075 110.184 136.731 109.68 135.171 109.68C133.275 109.68 131.139 110.784 131.139 113.448C131.139 116.016 133.275 117.288 135.171 117.288C136.707 117.288 138.051 116.736 138.915 115.752V117H141.435ZM136.155 115.56C134.739 115.56 133.683 114.744 133.683 113.496C133.683 112.224 134.739 111.408 136.155 111.408C137.259 111.408 138.339 111.816 138.915 112.608V114.36C138.339 115.152 137.259 115.56 136.155 115.56ZM143.502 117.288C146.046 117.288 147.486 115.536 147.942 111.336L148.35 107.616H152.55V117H155.07V105.408H146.118L145.422 111.048C145.038 114.096 144.486 115.224 143.502 115.224V117.288Z" fill="#868FA4"/>
</g>
<defs>
<clipPath id="clip0_137_549">
<rect width="440" height="266" fill="white"/>
</clipPath>
<clipPath id="clip1_137_549">
<rect width="80" height="54" fill="white" transform="translate(325 172)"/>
</clipPath>
</defs>
</svg>
