<svg width="439" height="266" viewBox="0 0 439 266" fill="none" xmlns="http://www.w3.org/2000/svg">
<g clip-path="url(#clip0_137_509)">
<rect y="0.000152588" width="439" height="266" rx="6" fill="#579D45"/>
<g opacity="0.7">
<path opacity="0.15" d="M-9.19922 246.999L-0.789845 254.207L53.0988 240.649M4.01552 239.963L41.0854 243.738L20.6626 258.841" stroke="white" stroke-width="2.5658" stroke-miterlimit="10" stroke-linecap="round" stroke-linejoin="round"/>
</g>
<g opacity="0.7">
<path opacity="0.15" d="M114.527 12.1438L122.936 19.3518L176.825 5.96545" stroke="white" stroke-width="2.5658" stroke-miterlimit="10" stroke-linecap="round" stroke-linejoin="round"/>
<path opacity="0.15" d="M127.741 5.10741L164.811 8.88301L144.389 24.1572" stroke="white" stroke-width="2.5658" stroke-miterlimit="10" stroke-linecap="round" stroke-linejoin="round"/>
</g>
<g opacity="0.7">
<path opacity="0.15" d="M359.675 16.3218L368.256 23.5298L422.145 9.97182M373.062 9.28523L410.132 13.0609L389.709 28.1634" stroke="white" stroke-width="2.5658" stroke-miterlimit="10" stroke-linecap="round" stroke-linejoin="round"/>
</g>
<g opacity="0.7">
<path opacity="0.15" d="M22 152.701L30.581 159.909L84.4697 146.351M35.3863 145.664L72.4563 149.44L52.0335 164.714" stroke="white" stroke-width="2.5658" stroke-miterlimit="10" stroke-linecap="round" stroke-linejoin="round"/>
</g>
<g opacity="0.7">
<path opacity="0.15" d="M288.891 79.9336L297.472 87.1416L351.189 73.5836M302.105 72.8971L339.175 76.6727L318.752 91.7753" stroke="white" stroke-width="2.5658" stroke-miterlimit="10" stroke-linecap="round" stroke-linejoin="round"/>
</g>
<g opacity="0.7">
<path opacity="0.15" d="M289.406 258.247L297.987 265.455L351.876 252.068M302.793 251.382L339.863 255.158L319.44 270.26" stroke="white" stroke-width="2.5658" stroke-miterlimit="10" stroke-linecap="round" stroke-linejoin="round"/>
</g>
<g opacity="0.7">
<path opacity="0.15" d="M369.23 199.21L377.811 206.418L431.7 193.031M382.617 192.173L419.515 195.949L399.264 211.223" stroke="white" stroke-width="2.5658" stroke-miterlimit="10" stroke-linecap="round" stroke-linejoin="round"/>
</g>
<path d="M59.664 92.384C65.008 92.384 68.88 89.792 68.88 86.048C68.88 82.976 66.128 81.216 63.856 80.992C66.384 80.576 68.528 78.688 68.528 76.192C68.528 72.672 65.136 70.336 59.696 70.336C55.76 70.336 52.592 71.776 50.8 73.792L53.456 77.248C54.96 75.904 57.168 75.2 59.12 75.2C61.328 75.2 63.024 75.808 63.024 77.152C63.024 78.272 61.52 78.816 59.248 78.816H54.896V83.648H59.248C62.32 83.648 63.376 84.224 63.376 85.44C63.376 86.624 62 87.52 59.472 87.52C57.616 87.52 54.832 86.784 53.296 85.28L50.512 89.024C52.176 90.944 55.6 92.384 59.664 92.384ZM85.8088 92V82.336C85.8088 77.536 82.3208 76.16 78.6088 76.16C76.2408 76.16 73.5848 76.864 71.6008 78.56L73.3608 81.664C74.6088 80.608 76.2088 80.032 77.7448 80.032C79.7288 80.032 80.8808 80.928 80.8808 82.272V84.128C79.9528 82.976 78.1288 82.336 76.0808 82.336C73.7128 82.336 70.7688 83.552 70.7688 87.296C70.7688 90.784 73.7128 92.384 76.0808 92.384C78.0648 92.384 79.9208 91.616 80.8808 90.464V92H85.8088ZM78.1288 89.152C76.8168 89.152 75.6648 88.576 75.6648 87.36C75.6648 86.144 76.8168 85.568 78.1288 85.568C79.2168 85.568 80.3688 85.952 80.8808 86.656V88.032C80.3688 88.768 79.2168 89.152 78.1288 89.152ZM96.7778 88.032C94.6338 88.032 93.4498 86.336 93.4498 84.224C93.4498 82.208 94.6338 80.512 96.7778 80.512C98.9538 80.512 100.17 82.208 100.17 84.224C100.17 86.336 98.9538 88.032 96.7778 88.032ZM96.7778 92.384C102.122 92.384 105.226 88.576 105.226 84.224C105.226 79.936 102.378 76.16 97.9618 76.16C95.8818 76.16 94.2178 76.896 92.9698 78.432C93.4178 76.768 94.7618 75.424 98.3458 74.912C100.842 74.56 104.65 73.664 104.65 70.656H99.3378C99.3378 71.136 98.4738 71.52 96.6498 71.808C91.2098 72.576 88.3938 76.032 88.3938 83.552C88.3938 88.576 91.4978 92.384 96.7778 92.384ZM117.359 92.384C121.231 92.384 124.142 89.504 124.142 84.256C124.142 79.04 121.231 76.16 117.359 76.16C115.599 76.16 113.999 76.864 112.783 78.336V76.544H107.855V97.888H112.783V90.176C114.062 91.712 115.631 92.384 117.359 92.384ZM115.727 88.032C114.671 88.032 113.391 87.424 112.783 86.624V81.92C113.391 81.088 114.671 80.512 115.727 80.512C117.647 80.512 119.119 81.952 119.119 84.256C119.119 86.592 117.647 88.032 115.727 88.032ZM134.09 92.384C139.402 92.384 142.538 88.608 142.538 84.256C142.538 79.904 139.402 76.16 134.09 76.16C128.842 76.16 125.674 79.904 125.674 84.256C125.674 88.608 128.842 92.384 134.09 92.384ZM134.09 88.032C131.946 88.032 130.762 86.336 130.762 84.256C130.762 82.208 131.946 80.512 134.09 80.512C136.266 80.512 137.482 82.208 137.482 84.256C137.482 86.336 136.266 88.032 134.09 88.032ZM150.064 92V86.144H155.6V92H160.528V76.544H155.6V81.856H150.064V76.544H145.136V92H150.064ZM168.809 92L174.569 83.488V92H179.497V76.544H174.537L169.033 84.64V76.544H164.105V92H168.809ZM192.577 92.384C196.449 92.384 199.361 89.504 199.361 84.256C199.361 79.04 196.449 76.16 192.577 76.16C190.817 76.16 189.217 76.864 188.001 78.336V76.544H183.073V97.888H188.001V90.176C189.281 91.712 190.849 92.384 192.577 92.384ZM190.945 88.032C189.889 88.032 188.609 87.424 188.001 86.624V81.92C188.609 81.088 189.889 80.512 190.945 80.512C192.865 80.512 194.337 81.952 194.337 84.256C194.337 86.592 192.865 88.032 190.945 88.032ZM201.597 98.016C202.109 98.176 203.261 98.272 203.709 98.272C206.653 98.208 208.989 97.472 210.237 94.208L217.213 76.544H211.997L208.477 86.336L204.989 76.544H199.805L205.949 92.224L205.597 93.056C205.341 93.696 204.637 93.92 203.517 93.92C203.133 93.92 202.653 93.824 202.301 93.632L201.597 98.016ZM223.402 92L229.162 83.488V92H234.09V76.544H229.13L223.626 84.64V76.544H218.698V92H223.402ZM232.01 72.288L229.898 70.56C229.098 71.744 227.882 72.416 226.41 72.416C224.874 72.416 223.69 71.648 222.89 70.56L220.778 72.288C222.09 74.016 224.138 75.104 226.41 75.104C228.714 75.104 230.73 74.016 232.01 72.288ZM245.539 92V80.832H249.731V76.544H236.387V80.832H240.611V92H245.539ZM259.466 92.384C261.834 92.384 264.394 91.712 265.93 90.336L263.85 87.264C262.986 88.096 261.098 88.576 260.01 88.576C257.77 88.576 256.426 87.264 256.138 85.824H267.146V84.768C267.146 79.52 263.818 76.16 259.242 76.16C254.41 76.16 251.018 79.776 251.018 84.256C251.018 89.28 254.698 92.384 259.466 92.384ZM262.442 82.624H256.074C256.266 81.504 257.098 79.968 259.242 79.968C261.514 79.968 262.314 81.536 262.442 82.624ZM71.248 128V112.544H64.752L61.52 120.896L58.288 112.544H51.792V128H56.72V118.752L60.272 128H62.8L66.352 118.752V128H71.248ZM82.2473 128.384C84.6153 128.384 87.1753 127.712 88.7113 126.336L86.6313 123.264C85.7673 124.096 83.8793 124.576 82.7913 124.576C80.5513 124.576 79.2073 123.264 78.9193 121.824H89.9272V120.768C89.9272 115.52 86.5993 112.16 82.0233 112.16C77.1913 112.16 73.7993 115.776 73.7993 120.256C73.7993 125.28 77.4793 128.384 82.2473 128.384ZM85.2233 118.624H78.8553C79.0473 117.504 79.8793 115.968 82.0233 115.968C84.2953 115.968 85.0953 117.536 85.2233 118.624ZM99.7785 128.384C103.107 128.384 105.187 126.88 106.115 125.536L102.915 122.528C102.307 123.392 101.315 124.032 100.003 124.032C97.9545 124.032 96.3865 122.592 96.3865 120.256C96.3865 117.92 97.9545 116.512 100.003 116.512C101.315 116.512 102.307 117.088 102.915 117.984L106.115 115.008C105.187 113.632 103.107 112.16 99.7785 112.16C94.9465 112.16 91.3305 115.424 91.3305 120.256C91.3305 125.12 94.9465 128.384 99.7785 128.384ZM116.227 128V116.832H120.419V112.544H107.075V116.832H111.299V128H116.227ZM130.122 128.384C135.434 128.384 138.569 124.608 138.569 120.256C138.569 115.904 135.434 112.16 130.122 112.16C124.874 112.16 121.706 115.904 121.706 120.256C121.706 124.608 124.874 128.384 130.122 128.384ZM130.122 124.032C127.978 124.032 126.794 122.336 126.794 120.256C126.794 118.208 127.978 116.512 130.122 116.512C132.298 116.512 133.514 118.208 133.514 120.256C133.514 122.336 132.298 124.032 130.122 124.032ZM154.283 128V122.144H159.819V128H164.747V112.544H159.819V117.856H154.283V112.544H149.355V128H154.283ZM182.371 128V118.336C182.371 113.536 178.883 112.16 175.171 112.16C172.803 112.16 170.147 112.864 168.163 114.56L169.923 117.664C171.171 116.608 172.771 116.032 174.307 116.032C176.291 116.032 177.443 116.928 177.443 118.272V120.128C176.515 118.976 174.691 118.336 172.643 118.336C170.275 118.336 167.331 119.552 167.331 123.296C167.331 126.784 170.275 128.384 172.643 128.384C174.627 128.384 176.483 127.616 177.443 126.464V128H182.371ZM174.691 125.152C173.379 125.152 172.227 124.576 172.227 123.36C172.227 122.144 173.379 121.568 174.691 121.568C175.779 121.568 176.931 121.952 177.443 122.656V124.032C176.931 124.768 175.779 125.152 174.691 125.152ZM209.528 128V112.544H194.136V128H199.064V116.832H204.6V128H209.528ZM227.153 128V118.336C227.153 113.536 223.665 112.16 219.953 112.16C217.585 112.16 214.929 112.864 212.945 114.56L214.705 117.664C215.953 116.608 217.553 116.032 219.089 116.032C221.073 116.032 222.225 116.928 222.225 118.272V120.128C221.297 118.976 219.473 118.336 217.425 118.336C215.057 118.336 212.113 119.552 212.113 123.296C212.113 126.784 215.057 128.384 217.425 128.384C219.409 128.384 221.265 127.616 222.225 126.464V128H227.153ZM219.473 125.152C218.161 125.152 217.009 124.576 217.009 123.36C217.009 122.144 218.161 121.568 219.473 121.568C220.561 121.568 221.713 121.952 222.225 122.656V124.032C221.713 124.768 220.561 125.152 219.473 125.152ZM240.234 128.384C244.106 128.384 247.017 125.504 247.017 120.256C247.017 115.04 244.106 112.16 240.234 112.16C238.474 112.16 236.874 112.864 235.658 114.336V112.544H230.73V133.888H235.658V126.176C236.938 127.712 238.506 128.384 240.234 128.384ZM238.602 124.032C237.546 124.032 236.266 123.424 235.658 122.624V117.92C236.266 117.088 237.546 116.512 238.602 116.512C240.522 116.512 241.994 117.952 241.994 120.256C241.994 122.592 240.522 124.032 238.602 124.032ZM265.445 128L259.461 119.584L265.157 112.544H259.205L254.501 118.72V112.544H249.573V128H254.501V124.288L255.973 122.528L259.365 128H265.445ZM274.184 128.384C279.496 128.384 282.632 124.608 282.632 120.256C282.632 115.904 279.496 112.16 274.184 112.16C268.936 112.16 265.768 115.904 265.768 120.256C265.768 124.608 268.936 128.384 274.184 128.384ZM274.184 124.032C272.04 124.032 270.856 122.336 270.856 120.256C270.856 118.208 272.04 116.512 274.184 116.512C276.36 116.512 277.576 118.208 277.576 120.256C277.576 122.336 276.36 124.032 274.184 124.032ZM296.014 128C299.31 128 300.942 126.048 300.942 123.776C300.942 121.888 299.694 120.384 297.934 120.032C299.438 119.584 300.59 118.336 300.59 116.512C300.59 114.56 299.022 112.544 295.726 112.544H285.23V128H296.014ZM294.766 124.192H290.158V122.048H294.766C295.502 122.048 295.982 122.528 295.982 123.136C295.982 123.776 295.47 124.192 294.766 124.192ZM294.574 118.272H290.158V116.352H294.574C295.214 116.352 295.63 116.736 295.63 117.312C295.63 117.856 295.214 118.272 294.574 118.272ZM320.352 128L314.368 119.584L320.064 112.544H314.112L309.408 118.72V112.544H304.48V128H309.408V124.288L310.88 122.528L314.272 128H320.352ZM329.122 128.384C331.49 128.384 334.05 127.712 335.586 126.336L333.506 123.264C332.642 124.096 330.754 124.576 329.666 124.576C327.426 124.576 326.082 123.264 325.794 121.824H336.802V120.768C336.802 115.52 333.474 112.16 328.898 112.16C324.066 112.16 320.674 115.776 320.674 120.256C320.674 125.28 324.354 128.384 329.122 128.384ZM332.098 118.624H325.73C325.922 117.504 326.754 115.968 328.898 115.968C331.17 115.968 331.97 117.536 332.098 118.624Z" fill="white"/>
</g>
<defs>
<clipPath id="clip0_137_509">
<rect width="439" height="266" fill="white"/>
</clipPath>
</defs>
</svg>
