<svg width="440" height="266" viewBox="0 0 440 266" fill="none" xmlns="http://www.w3.org/2000/svg">
<g clip-path="url(#clip0_137_542)">
<rect y="3.05176e-05" width="440" height="266" rx="6" fill="#F2F7FC"/>
<path d="M62.256 78.384C68.784 78.384 73.648 73.84 73.648 67.344C73.648 60.848 68.784 56.304 62.256 56.304C55.728 56.304 50.832 60.848 50.832 67.344C50.832 73.84 55.728 78.384 62.256 78.384ZM62.256 73.52C58.704 73.52 56.432 70.8 56.432 67.344C56.432 63.856 58.704 61.168 62.256 61.168C65.776 61.168 68.048 63.856 68.048 67.344C68.048 70.8 65.776 73.52 62.256 73.52ZM84.164 78V66.832H88.356V62.544H75.012V66.832H79.236V78H84.164ZM101.451 78C104.747 78 106.379 76.048 106.379 73.776C106.379 71.888 105.131 70.384 103.371 70.032C104.875 69.584 106.027 68.336 106.027 66.512C106.027 64.56 104.459 62.544 101.163 62.544H90.667V78H101.451ZM100.203 74.192H95.595V72.048H100.203C100.939 72.048 101.419 72.528 101.419 73.136C101.419 73.776 100.907 74.192 100.203 74.192ZM100.011 68.272H95.595V66.352H100.011C100.651 66.352 101.067 66.736 101.067 67.312C101.067 67.856 100.651 68.272 100.011 68.272ZM117.341 78.384C119.709 78.384 122.269 77.712 123.805 76.336L121.725 73.264C120.861 74.096 118.973 74.576 117.885 74.576C115.645 74.576 114.301 73.264 114.013 71.824H125.021V70.768C125.021 65.52 121.693 62.16 117.117 62.16C112.285 62.16 108.893 65.776 108.893 70.256C108.893 75.28 112.573 78.384 117.341 78.384ZM120.317 68.624H113.949C114.141 67.504 114.973 65.968 117.117 65.968C119.389 65.968 120.189 67.536 120.317 68.624ZM135.32 78V66.832H139.512V62.544H126.168V66.832H130.392V78H135.32ZM149.247 78.384C152.575 78.384 154.655 76.88 155.583 75.536L152.383 72.528C151.775 73.392 150.783 74.032 149.471 74.032C147.423 74.032 145.855 72.592 145.855 70.256C145.855 67.92 147.423 66.512 149.471 66.512C150.783 66.512 151.775 67.088 152.383 67.984L155.583 65.008C154.655 63.632 152.575 62.16 149.247 62.16C144.415 62.16 140.799 65.424 140.799 70.256C140.799 75.12 144.415 78.384 149.247 78.384ZM165.695 78V66.832H169.887V62.544H156.543V66.832H160.767V78H165.695ZM182.982 78C186.278 78 187.91 76.048 187.91 73.776C187.91 71.888 186.662 70.384 184.902 70.032C186.406 69.584 187.558 68.336 187.558 66.512C187.558 64.56 185.99 62.544 182.694 62.544H172.198V78H182.982ZM181.734 74.192H177.126V72.048H181.734C182.47 72.048 182.95 72.528 182.95 73.136C182.95 73.776 182.438 74.192 181.734 74.192ZM181.542 68.272H177.126V66.352H181.542C182.182 66.352 182.598 66.736 182.598 67.312C182.598 67.856 182.182 68.272 181.542 68.272ZM198.872 78.384C201.24 78.384 203.8 77.712 205.336 76.336L203.256 73.264C202.392 74.096 200.504 74.576 199.416 74.576C197.176 74.576 195.832 73.264 195.544 71.824H206.552V70.768C206.552 65.52 203.224 62.16 198.648 62.16C193.816 62.16 190.424 65.776 190.424 70.256C190.424 75.28 194.104 78.384 198.872 78.384ZM201.848 68.624H195.48C195.672 67.504 196.504 65.968 198.648 65.968C200.92 65.968 201.72 67.536 201.848 68.624ZM213.908 78V72.144H219.444V78H224.372V62.544H219.444V67.856H213.908V62.544H208.98V78H213.908ZM232.876 78V72.144H238.412V78H243.34V62.544H238.412V67.856H232.876V62.544H227.948V78H232.876ZM254.309 78.384C259.621 78.384 262.757 74.608 262.757 70.256C262.757 65.904 259.621 62.16 254.309 62.16C249.061 62.16 245.893 65.904 245.893 70.256C245.893 74.608 249.061 78.384 254.309 78.384ZM254.309 74.032C252.165 74.032 250.981 72.336 250.981 70.256C250.981 68.208 252.165 66.512 254.309 66.512C256.485 66.512 257.701 68.208 257.701 70.256C257.701 72.336 256.485 74.032 254.309 74.032ZM272.779 78.384C276.107 78.384 278.187 76.88 279.115 75.536L275.915 72.528C275.307 73.392 274.315 74.032 273.003 74.032C270.955 74.032 269.387 72.592 269.387 70.256C269.387 67.92 270.955 66.512 273.003 66.512C274.315 66.512 275.307 67.088 275.915 67.984L279.115 65.008C278.187 63.632 276.107 62.16 272.779 62.16C267.947 62.16 264.331 65.424 264.331 70.256C264.331 75.12 267.947 78.384 272.779 78.384ZM289.227 78V66.832H293.419V62.544H280.075V66.832H284.299V78H289.227ZM295.73 62.544V78H305.746C309.33 78 311.378 75.568 311.378 72.752C311.378 69.904 309.49 67.504 305.746 67.504H300.658V62.544H295.73ZM304.882 71.472C305.81 71.472 306.386 72.016 306.386 72.752C306.386 73.488 305.81 74.032 304.882 74.032H300.658V71.472H304.882Z" fill="#579D45"/>
<path d="M55.808 117.288C59.216 117.288 61.28 115.848 61.28 113.856C61.28 112.032 59.36 111.168 57.968 111.072C59.432 110.856 61.04 109.872 61.04 108.288C61.04 106.32 58.928 105.12 55.52 105.144C53.408 105.144 51.776 105.912 50.672 107.04L51.92 108.576C52.856 107.64 54.08 107.184 55.64 107.184C57.248 107.184 58.424 107.784 58.424 108.624C58.424 109.632 57.32 110.136 55.592 110.136H53.12V112.152H55.592C57.368 112.152 58.64 112.56 58.64 113.664C58.64 114.6 57.584 115.224 55.808 115.224C54.272 115.224 52.736 114.768 51.656 113.808L50.48 115.416C51.632 116.544 53.432 117.288 55.808 117.288ZM73.4195 117V109.32C73.4195 106.2 71.1635 105.12 68.5955 105.12C66.7475 105.12 65.0675 105.72 63.7235 106.992L64.7555 108.744C65.7635 107.76 66.8915 107.28 68.1875 107.28C69.7955 107.28 70.8995 108.096 70.8995 109.44V111.168C70.0595 110.184 68.7155 109.68 67.1555 109.68C65.2595 109.68 63.1235 110.784 63.1235 113.448C63.1235 116.016 65.2595 117.288 67.1555 117.288C68.6915 117.288 70.0355 116.736 70.8995 115.752V117H73.4195ZM68.1395 115.56C66.7235 115.56 65.6675 114.744 65.6675 113.496C65.6675 112.224 66.7235 111.408 68.1395 111.408C69.2435 111.408 70.3235 111.816 70.8995 112.608V114.36C70.3235 115.152 69.2435 115.56 68.1395 115.56ZM81.9667 117.288C84.2227 117.288 85.5907 116.328 86.4067 115.224L84.7507 113.688C84.1027 114.576 83.2147 115.056 82.0867 115.056C79.9747 115.056 78.5827 113.448 78.5827 111.192C78.5827 108.936 79.9747 107.352 82.0867 107.352C83.2147 107.352 84.1027 107.808 84.7507 108.72L86.4067 107.184C85.5907 106.08 84.2227 105.12 81.9667 105.12C78.4387 105.12 75.9667 107.688 75.9667 111.192C75.9667 114.72 78.4387 117.288 81.9667 117.288ZM93.2484 117V107.616H96.5844V105.408H87.4164V107.616H90.7284V117H93.2484ZM104.888 117.288C107.888 117.288 110.024 115.008 110.024 111.192C110.024 107.376 107.888 105.12 104.888 105.12C103.376 105.12 102.032 105.84 101.168 106.992V105.408H98.6476V121.416H101.168V115.392C102.104 116.64 103.424 117.288 104.888 117.288ZM104.144 115.056C102.968 115.056 101.72 114.336 101.168 113.496V108.912C101.72 108.048 102.968 107.352 104.144 107.352C106.136 107.352 107.408 108.96 107.408 111.192C107.408 113.448 106.136 115.056 104.144 115.056ZM122.123 117V109.32C122.123 106.2 119.867 105.12 117.299 105.12C115.451 105.12 113.771 105.72 112.427 106.992L113.459 108.744C114.467 107.76 115.595 107.28 116.891 107.28C118.499 107.28 119.603 108.096 119.603 109.44V111.168C118.763 110.184 117.419 109.68 115.859 109.68C113.963 109.68 111.827 110.784 111.827 113.448C111.827 116.016 113.963 117.288 115.859 117.288C117.395 117.288 118.739 116.736 119.603 115.752V117H122.123ZM116.843 115.56C115.427 115.56 114.371 114.744 114.371 113.496C114.371 112.224 115.427 111.408 116.843 111.408C117.947 111.408 119.027 111.816 119.603 112.608V114.36C119.027 115.152 117.947 115.56 116.843 115.56ZM135.542 117L131.27 111.048L135.278 105.408H132.446L129.71 109.344L126.95 105.408H124.118L128.126 111.048L123.878 117H126.686L129.71 112.728L132.71 117H135.542ZM141.684 117.288C145.404 117.288 147.66 114.528 147.66 111.192C147.66 107.88 145.404 105.12 141.684 105.12C138.012 105.12 135.732 107.88 135.732 111.192C135.732 114.528 138.012 117.288 141.684 117.288ZM141.684 115.056C139.548 115.056 138.348 113.256 138.348 111.192C138.348 109.152 139.548 107.352 141.684 107.352C143.844 107.352 145.044 109.152 145.044 111.192C145.044 113.256 143.844 115.056 141.684 115.056ZM157.314 117C159.57 117 160.818 115.656 160.818 113.856C160.818 112.488 159.882 111.312 158.634 111.024C159.69 110.712 160.578 109.776 160.578 108.384C160.578 106.728 159.354 105.408 157.146 105.408H150.21V117H157.314ZM156.786 114.792H152.73V112.176H156.786C157.722 112.176 158.226 112.8 158.226 113.496C158.226 114.312 157.674 114.792 156.786 114.792ZM156.714 109.968H152.73V107.616H156.714C157.53 107.616 158.01 108.096 158.01 108.816C158.01 109.464 157.53 109.968 156.714 109.968ZM173.545 117V109.32C173.545 106.2 171.289 105.12 168.721 105.12C166.873 105.12 165.193 105.72 163.849 106.992L164.881 108.744C165.889 107.76 167.017 107.28 168.312 107.28C169.921 107.28 171.025 108.096 171.025 109.44V111.168C170.185 110.184 168.841 109.68 167.281 109.68C165.385 109.68 163.249 110.784 163.249 113.448C163.249 116.016 165.385 117.288 167.281 117.288C168.817 117.288 170.161 116.736 171.025 115.752V117H173.545ZM168.265 115.56C166.849 115.56 165.793 114.744 165.793 113.496C165.793 112.224 166.849 111.408 168.265 111.408C169.368 111.408 170.449 111.816 171.025 112.608V114.36C170.449 115.152 169.368 115.56 168.265 115.56ZM179.332 117V112.176H184.66V117H187.18V105.408H184.66V109.968H179.332V105.408H176.812V117H179.332ZM200.052 117V109.32C200.052 106.2 197.796 105.12 195.228 105.12C193.38 105.12 191.7 105.72 190.356 106.992L191.388 108.744C192.396 107.76 193.524 107.28 194.82 107.28C196.428 107.28 197.532 108.096 197.532 109.44V111.168C196.692 110.184 195.348 109.68 193.788 109.68C191.892 109.68 189.756 110.784 189.756 113.448C189.756 116.016 191.892 117.288 193.788 117.288C195.324 117.288 196.668 116.736 197.532 115.752V117H200.052ZM194.772 115.56C193.356 115.56 192.3 114.744 192.3 113.496C192.3 112.224 193.356 111.408 194.772 111.408C195.876 111.408 196.956 111.816 197.532 112.608V114.36C196.956 115.152 195.876 115.56 194.772 115.56ZM216.588 117C218.844 117 220.092 115.656 220.092 113.856C220.092 112.488 219.156 111.312 217.908 111.024C218.964 110.712 219.852 109.776 219.852 108.384C219.852 106.728 218.628 105.408 216.42 105.408H209.484V117H216.588ZM216.06 114.792H212.004V112.176H216.06C216.996 112.176 217.5 112.8 217.5 113.496C217.5 114.312 216.948 114.792 216.06 114.792ZM215.988 109.968H212.004V107.616H215.988C216.804 107.616 217.284 108.096 217.284 108.816C217.284 109.464 216.804 109.968 215.988 109.968ZM234.662 117.288C236.918 117.288 238.286 116.328 239.102 115.224L237.446 113.688C236.798 114.576 235.91 115.056 234.782 115.056C232.67 115.056 231.278 113.448 231.278 111.192C231.278 108.936 232.67 107.352 234.782 107.352C235.91 107.352 236.798 107.808 237.446 108.72L239.102 107.184C238.286 106.08 236.918 105.12 234.662 105.12C231.134 105.12 228.662 107.688 228.662 111.192C228.662 114.72 231.134 117.288 234.662 117.288ZM245.944 117V107.616H249.28V105.408H240.112V107.616H243.424V117H245.944ZM257.583 117.288C260.583 117.288 262.719 115.008 262.719 111.192C262.719 107.376 260.583 105.12 257.583 105.12C256.071 105.12 254.727 105.84 253.863 106.992V105.408H251.343V121.416H253.863V115.392C254.799 116.64 256.119 117.288 257.583 117.288ZM256.839 115.056C255.663 115.056 254.415 114.336 253.863 113.496V108.912C254.415 108.048 255.663 107.352 256.839 107.352C258.831 107.352 260.103 108.96 260.103 111.192C260.103 113.448 258.831 115.056 256.839 115.056ZM274.818 117V109.32C274.818 106.2 272.562 105.12 269.994 105.12C268.146 105.12 266.466 105.72 265.122 106.992L266.154 108.744C267.162 107.76 268.29 107.28 269.586 107.28C271.194 107.28 272.298 108.096 272.298 109.44V111.168C271.458 110.184 270.114 109.68 268.554 109.68C266.658 109.68 264.522 110.784 264.522 113.448C264.522 116.016 266.658 117.288 268.554 117.288C270.09 117.288 271.434 116.736 272.298 115.752V117H274.818ZM269.538 115.56C268.122 115.56 267.066 114.744 267.066 113.496C267.066 112.224 268.122 111.408 269.538 111.408C270.642 111.408 271.722 111.816 272.298 112.608V114.36C271.722 115.152 270.642 115.56 269.538 115.56ZM288.237 117L283.965 111.048L287.973 105.408H285.141L282.405 109.344L279.645 105.408H276.813L280.821 111.048L276.573 117H279.381L282.405 112.728L285.405 117H288.237ZM294.38 117.288C298.1 117.288 300.356 114.528 300.356 111.192C300.356 107.88 298.1 105.12 294.38 105.12C290.708 105.12 288.428 107.88 288.428 111.192C288.428 114.528 290.708 117.288 294.38 117.288ZM294.38 115.056C292.244 115.056 291.044 113.256 291.044 111.192C291.044 109.152 292.244 107.352 294.38 107.352C296.54 107.352 297.74 109.152 297.74 111.192C297.74 113.256 296.54 115.056 294.38 115.056ZM310.009 117C312.265 117 313.513 115.656 313.513 113.856C313.513 112.488 312.577 111.312 311.329 111.024C312.385 110.712 313.273 109.776 313.273 108.384C313.273 106.728 312.049 105.408 309.841 105.408H302.905V117H310.009ZM309.481 114.792H305.425V112.176H309.481C310.417 112.176 310.921 112.8 310.921 113.496C310.921 114.312 310.369 114.792 309.481 114.792ZM309.409 109.968H305.425V107.616H309.409C310.225 107.616 310.705 108.096 310.705 108.816C310.705 109.464 310.225 109.968 309.409 109.968ZM321.872 117.288C325.592 117.288 327.848 114.528 327.848 111.192C327.848 107.88 325.592 105.12 321.872 105.12C318.2 105.12 315.92 107.88 315.92 111.192C315.92 114.528 318.2 117.288 321.872 117.288ZM321.872 115.056C319.736 115.056 318.536 113.256 318.536 111.192C318.536 109.152 319.736 107.352 321.872 107.352C324.032 107.352 325.232 109.152 325.232 111.192C325.232 113.256 324.032 115.056 321.872 115.056ZM332.822 117L338.246 108.984V117H340.766V105.408H338.246L332.918 113.208V105.408H330.398V117H332.822ZM339.782 102.072L338.63 101.112C337.934 102.096 336.854 102.696 335.582 102.696C334.262 102.696 333.206 102.072 332.51 101.112L331.358 102.072C332.342 103.368 333.878 104.184 335.582 104.184C337.31 104.184 338.822 103.368 339.782 102.072ZM62.48 149L57.56 142.664L62.384 137.408H59.264L54.152 143V137.408H51.632V149H54.152V145.88L55.76 144.224L59.312 149H62.48ZM69.3796 149.288C73.0996 149.288 75.3556 146.528 75.3556 143.192C75.3556 139.88 73.0996 137.12 69.3796 137.12C65.7076 137.12 63.4276 139.88 63.4276 143.192C63.4276 146.528 65.7076 149.288 69.3796 149.288ZM69.3796 147.056C67.2436 147.056 66.0436 145.256 66.0436 143.192C66.0436 141.152 67.2436 139.352 69.3796 139.352C71.5396 139.352 72.7396 141.152 72.7396 143.192C72.7396 145.256 71.5396 147.056 69.3796 147.056ZM90.8894 149V137.408H87.5774L84.4094 144.896L81.1934 137.408H77.9054V149H80.4254V140.936L83.9054 149H84.9134L88.3694 140.936V149H90.8894ZM104.516 149V137.408H94.1476V149H96.6676V139.616H101.996V149H104.516ZM117.388 149V141.32C117.388 138.2 115.132 137.12 112.564 137.12C110.716 137.12 109.036 137.72 107.692 138.992L108.724 140.744C109.732 139.76 110.86 139.28 112.156 139.28C113.764 139.28 114.868 140.096 114.868 141.44V143.168C114.028 142.184 112.684 141.68 111.124 141.68C109.228 141.68 107.092 142.784 107.092 145.448C107.092 148.016 109.228 149.288 111.124 149.288C112.66 149.288 114.004 148.736 114.868 147.752V149H117.388ZM112.108 147.56C110.692 147.56 109.636 146.744 109.636 145.496C109.636 144.224 110.692 143.408 112.108 143.408C113.212 143.408 114.292 143.816 114.868 144.608V146.36C114.292 147.152 113.212 147.56 112.108 147.56ZM123.175 149V144.176H128.503V149H131.023V137.408H128.503V141.968H123.175V137.408H120.655V149H123.175ZM136.72 149L142.144 140.984V149H144.664V137.408H142.144L136.816 145.208V137.408H134.296V149H136.72ZM150.361 149L155.785 140.984V149H158.305V137.408H155.785L150.457 145.208V137.408H147.937V149H150.361Z" fill="#868FA4"/>
<g clip-path="url(#clip1_137_542)">
<path d="M377.5 186.67C380.525 186.67 383 189.171 383 192.289V220.382C383 223.472 380.525 226 377.5 226H344.5C341.447 226 339 223.472 339 220.382V192.289C339 189.171 341.447 186.67 344.5 186.67H347.25V181.052C347.25 173.298 353.41 167 361 167C368.59 167 374.75 173.298 374.75 181.052V186.67H377.5ZM361 172.624C356.435 172.624 352.75 176.389 352.75 181.052V186.67H369.25V181.052C369.25 176.389 365.565 172.624 361 172.624ZM358.25 217.572L375.438 200.042L371.56 196.081L358.25 209.65L351.127 202.402L347.25 206.335L358.25 217.572Z" fill="#579D45"/>
</g>
</g>
<defs>
<clipPath id="clip0_137_542">
<rect width="440" height="266" fill="white"/>
</clipPath>
<clipPath id="clip1_137_542">
<rect width="44" height="59" fill="white" transform="translate(339 167)"/>
</clipPath>
</defs>
</svg>
