<svg width="440" height="266" viewBox="0 0 440 266" fill="none" xmlns="http://www.w3.org/2000/svg">
<g clip-path="url(#clip0_137_535)">
<rect y="9.15527e-05" width="440" height="266" rx="6" fill="#F2F7FC"/>
<g clip-path="url(#clip1_137_535)">
<path d="M361 167L336 177.909V194.273C336 209.409 346.667 223.564 361 227C375.333 223.564 386 209.409 386 194.273V177.909L361 167ZM369.556 207.909L361 202.864L352.472 207.909L354.722 198.364L347.194 191.982L357.139 191.136L361 182.136L364.861 191.109L374.806 191.955L367.278 198.364L369.556 207.909Z" fill="#579D45"/>
</g>
<path d="M51.92 56.6561V78.0001H62.8C67.504 78.0001 70.032 74.8321 70.032 71.0881C70.032 67.3441 67.504 64.2081 62.8 64.2081H57.424V61.4561H68.592V56.6561H51.92ZM62.128 69.0081C63.44 69.0081 64.432 69.7761 64.432 71.0881C64.432 72.4321 63.44 73.2001 62.128 73.2001H57.424V69.0081H62.128ZM79.7785 78.3841C82.1465 78.3841 84.7065 77.7121 86.2425 76.3361L84.1625 73.2641C83.2985 74.0961 81.4105 74.5761 80.3225 74.5761C78.0825 74.5761 76.7385 73.2641 76.4505 71.8241H87.4585V70.7681C87.4585 65.5201 84.1305 62.1601 79.5545 62.1601C74.7225 62.1601 71.3305 65.7761 71.3305 70.2561C71.3305 75.2801 75.0105 78.3841 79.7785 78.3841ZM82.7545 68.6241H76.3865C76.5785 67.5041 77.4105 65.9681 79.5545 65.9681C81.8265 65.9681 82.6265 67.5361 82.7545 68.6241ZM95.6138 78.3841C100.318 78.3521 103.294 76.4641 103.262 73.7121C103.262 71.4721 100.894 70.1921 98.9738 70.0641C101.118 69.7121 102.974 68.2721 102.974 66.4801C102.942 63.8561 100.318 62.1601 95.1978 62.1921C92.3818 62.1921 90.0458 63.2481 88.5098 64.7841L90.8778 67.6001C92.0298 66.5121 93.5658 65.9361 95.4538 65.9361C96.8938 65.9361 97.8858 66.4161 97.8858 67.0881C97.8858 67.8881 97.2778 68.3681 95.3898 68.3681H92.3498V72.0481H95.3898C97.2138 72.0481 98.1738 72.5281 98.1738 73.3921C98.1738 74.1281 97.3738 74.6081 95.6138 74.6081C94.0138 74.6081 91.9658 74.0961 90.5258 73.0081L88.3178 75.9201C89.8218 77.3601 92.3818 78.3841 95.6138 78.3841ZM113.215 78.3841C118.527 78.3841 121.663 74.6081 121.663 70.2561C121.663 65.9041 118.527 62.1601 113.215 62.1601C107.967 62.1601 104.799 65.9041 104.799 70.2561C104.799 74.6081 107.967 78.3841 113.215 78.3841ZM113.215 74.0321C111.071 74.0321 109.887 72.3361 109.887 70.2561C109.887 68.2081 111.071 66.5121 113.215 66.5121C115.391 66.5121 116.607 68.2081 116.607 70.2561C116.607 72.3361 115.391 74.0321 113.215 74.0321ZM139.653 78.0001V62.5441H124.261V78.0001H129.189V66.8321H134.725V78.0001H139.653ZM157.278 78.0001V68.3361C157.278 63.5361 153.79 62.1601 150.078 62.1601C147.71 62.1601 145.054 62.8641 143.07 64.5601L144.83 67.6641C146.078 66.6081 147.678 66.0321 149.214 66.0321C151.198 66.0321 152.35 66.9281 152.35 68.2721V70.1281C151.422 68.9761 149.598 68.3361 147.55 68.3361C145.182 68.3361 142.238 69.5521 142.238 73.2961C142.238 76.7841 145.182 78.3841 147.55 78.3841C149.534 78.3841 151.39 77.6161 152.35 76.4641V78.0001H157.278ZM149.598 75.1521C148.286 75.1521 147.134 74.5761 147.134 73.3601C147.134 72.1441 148.286 71.5681 149.598 71.5681C150.686 71.5681 151.838 71.9521 152.35 72.6561V74.0321C151.838 74.7681 150.686 75.1521 149.598 75.1521ZM168.279 78.3841C171.607 78.3841 173.687 76.8801 174.615 75.5361L171.415 72.5281C170.807 73.3921 169.815 74.0321 168.503 74.0321C166.455 74.0321 164.887 72.5921 164.887 70.2561C164.887 67.9201 166.455 66.5121 168.503 66.5121C169.815 66.5121 170.807 67.0881 171.415 67.9841L174.615 65.0081C173.687 63.6321 171.607 62.1601 168.279 62.1601C163.447 62.1601 159.831 65.4241 159.831 70.2561C159.831 75.1201 163.447 78.3841 168.279 78.3841ZM181.783 78.0001V72.1441H187.319V78.0001H192.247V62.5441H187.319V67.8561H181.783V62.5441H176.855V78.0001H181.783ZM203.215 78.3841C208.527 78.3841 211.663 74.6081 211.663 70.2561C211.663 65.9041 208.527 62.1601 203.215 62.1601C197.967 62.1601 194.799 65.9041 194.799 70.2561C194.799 74.6081 197.967 78.3841 203.215 78.3841ZM203.215 74.0321C201.071 74.0321 199.887 72.3361 199.887 70.2561C199.887 68.2081 201.071 66.5121 203.215 66.5121C205.391 66.5121 206.607 68.2081 206.607 70.2561C206.607 72.3361 205.391 74.0321 203.215 74.0321ZM221.685 78.3841C225.013 78.3841 227.093 76.8801 228.021 75.5361L224.821 72.5281C224.213 73.3921 223.221 74.0321 221.909 74.0321C219.861 74.0321 218.293 72.5921 218.293 70.2561C218.293 67.9201 219.861 66.5121 221.909 66.5121C223.221 66.5121 224.213 67.0881 224.821 67.9841L228.021 65.0081C227.093 63.6321 225.013 62.1601 221.685 62.1601C216.853 62.1601 213.237 65.4241 213.237 70.2561C213.237 75.1201 216.853 78.3841 221.685 78.3841ZM238.133 78.0001V66.8321H242.325V62.5441H228.981V66.8321H233.205V78.0001H238.133ZM244.636 62.5441V78.0001H254.652C258.236 78.0001 260.284 75.5681 260.284 72.7521C260.284 69.9041 258.396 67.5041 254.652 67.5041H249.564V62.5441H244.636ZM253.788 71.4721C254.716 71.4721 255.292 72.0161 255.292 72.7521C255.292 73.4881 254.716 74.0321 253.788 74.0321H249.564V71.4721H253.788Z" fill="#579D45"/>
<path d="M54.152 117V112.176H59.48V117H62V105.408H59.48V109.968H54.152V105.408H51.632V117H54.152ZM74.8726 117V109.32C74.8726 106.2 72.6166 105.12 70.0486 105.12C68.2006 105.12 66.5206 105.72 65.1766 106.992L66.2086 108.744C67.2166 107.76 68.3446 107.28 69.6406 107.28C71.2486 107.28 72.3526 108.096 72.3526 109.44V111.168C71.5126 110.184 70.1686 109.68 68.6086 109.68C66.7126 109.68 64.5766 110.784 64.5766 113.448C64.5766 116.016 66.7126 117.288 68.6086 117.288C70.1446 117.288 71.4886 116.736 72.3526 115.752V117H74.8726ZM69.5926 115.56C68.1766 115.56 67.1206 114.744 67.1206 113.496C67.1206 112.224 68.1766 111.408 69.5926 111.408C70.6966 111.408 71.7766 111.816 72.3526 112.608V114.36C71.7766 115.152 70.6966 115.56 69.5926 115.56ZM89.5359 117.288C93.2559 117.288 95.5119 114.528 95.5119 111.192C95.5119 107.88 93.2559 105.12 89.5359 105.12C85.8639 105.12 83.5839 107.88 83.5839 111.192C83.5839 114.528 85.8639 117.288 89.5359 117.288ZM89.5359 115.056C87.3999 115.056 86.1999 113.256 86.1999 111.192C86.1999 109.152 87.3999 107.352 89.5359 107.352C91.6959 107.352 92.8959 109.152 92.8959 111.192C92.8959 113.256 91.6959 115.056 89.5359 115.056ZM103.294 115.056C101.158 115.056 99.9577 113.256 99.9577 111.144C99.9577 109.152 101.158 107.352 103.294 107.352C105.454 107.352 106.654 109.152 106.654 111.144C106.654 113.256 105.454 115.056 103.294 115.056ZM103.294 117.288C107.062 117.288 109.246 114.432 109.246 111.168C109.246 107.952 107.062 105.12 103.774 105.12C102.094 105.12 100.534 105.888 99.5977 107.16C99.9097 105.744 101.11 104.376 103.894 104.064C105.814 103.848 108.838 103.248 108.838 100.992H106.366C106.366 101.424 105.67 101.712 103.198 102.072C99.3097 102.552 97.3657 105.024 97.3657 110.664C97.3657 114.432 99.5497 117.288 103.294 117.288ZM120.649 117C123.145 117 124.489 115.296 124.489 113.304C124.489 111.312 123.217 109.608 120.649 109.608H116.545V105.408H110.713V107.616H114.025V117H120.649ZM120.337 111.816C121.345 111.816 121.921 112.44 121.921 113.304C121.921 114.168 121.345 114.792 120.337 114.792H116.545V111.816H120.337ZM132.336 117.288C134.184 117.288 135.888 116.712 137.04 115.608L135.888 113.952C135.072 114.768 133.728 115.224 132.6 115.224C130.416 115.224 129.096 113.784 128.904 112.032H137.856V111.432C137.856 107.784 135.624 105.12 132.144 105.12C128.712 105.12 126.264 107.832 126.264 111.192C126.264 114.864 128.856 117.288 132.336 117.288ZM135.408 110.256H128.88C129 108.84 129.984 107.184 132.144 107.184C134.424 107.184 135.36 108.888 135.408 110.256ZM151.191 117L146.271 110.664L151.095 105.408H147.975L142.863 111V105.408H140.343V117H142.863V113.88L144.471 112.224L148.023 117H151.191ZM157.608 117V107.616H160.944V105.408H151.776V107.616H155.088V117H157.608ZM168.359 117.288C170.207 117.288 171.911 116.712 173.063 115.608L171.911 113.952C171.095 114.768 169.751 115.224 168.623 115.224C166.439 115.224 165.119 113.784 164.927 112.032H173.879V111.432C173.879 107.784 171.647 105.12 168.167 105.12C164.735 105.12 162.287 107.832 162.287 111.192C162.287 114.864 164.879 117.288 168.359 117.288ZM171.431 110.256H164.903C165.023 108.84 166.007 107.184 168.167 107.184C170.447 107.184 171.383 108.888 171.431 110.256ZM187.762 117.288C191.482 117.288 193.738 114.528 193.738 111.192C193.738 107.88 191.482 105.12 187.762 105.12C184.09 105.12 181.81 107.88 181.81 111.192C181.81 114.528 184.09 117.288 187.762 117.288ZM187.762 115.056C185.626 115.056 184.426 113.256 184.426 111.192C184.426 109.152 185.626 107.352 187.762 107.352C189.922 107.352 191.122 109.152 191.122 111.192C191.122 113.256 189.922 115.056 187.762 115.056ZM201.52 115.056C199.384 115.056 198.184 113.256 198.184 111.144C198.184 109.152 199.384 107.352 201.52 107.352C203.68 107.352 204.88 109.152 204.88 111.144C204.88 113.256 203.68 115.056 201.52 115.056ZM201.52 117.288C205.288 117.288 207.472 114.432 207.472 111.168C207.472 107.952 205.288 105.12 202 105.12C200.32 105.12 198.76 105.888 197.824 107.16C198.136 105.744 199.336 104.376 202.12 104.064C204.04 103.848 207.064 103.248 207.064 100.992H204.592C204.592 101.424 203.896 101.712 201.424 102.072C197.536 102.552 195.592 105.024 195.592 110.664C195.592 114.432 197.776 117.288 201.52 117.288ZM215.492 117.288C217.34 117.288 219.044 116.712 220.196 115.608L219.044 113.952C218.228 114.768 216.884 115.224 215.756 115.224C213.572 115.224 212.252 113.784 212.06 112.032H221.012V111.432C221.012 107.784 218.78 105.12 215.3 105.12C211.868 105.12 209.42 107.832 209.42 111.192C209.42 114.864 212.012 117.288 215.492 117.288ZM218.564 110.256H212.036C212.156 108.84 213.14 107.184 215.3 107.184C217.58 107.184 218.516 108.888 218.564 110.256ZM228.779 117.288C231.035 117.288 232.403 116.328 233.219 115.224L231.563 113.688C230.915 114.576 230.027 115.056 228.899 115.056C226.787 115.056 225.395 113.448 225.395 111.192C225.395 108.936 226.787 107.352 228.899 107.352C230.027 107.352 230.915 107.808 231.563 108.72L233.219 107.184C232.403 106.08 231.035 105.12 228.779 105.12C225.251 105.12 222.779 107.688 222.779 111.192C222.779 114.72 225.251 117.288 228.779 117.288ZM245.797 117V105.408H235.429V117H237.949V107.616H243.277V117H245.797ZM254.422 117.288C256.27 117.288 257.974 116.712 259.126 115.608L257.974 113.952C257.158 114.768 255.814 115.224 254.686 115.224C252.502 115.224 251.182 113.784 250.99 112.032H259.942V111.432C259.942 107.784 257.71 105.12 254.23 105.12C250.798 105.12 248.35 107.832 248.35 111.192C248.35 114.864 250.942 117.288 254.422 117.288ZM257.494 110.256H250.965C251.086 108.84 252.07 107.184 254.23 107.184C256.51 107.184 257.446 108.888 257.494 110.256ZM262.021 105.408V109.44C262.021 111.816 263.245 113.112 266.509 113.112C267.901 113.112 269.077 112.872 269.845 112.488V117H272.365V105.408H269.845V110.448C269.245 110.712 268.405 110.88 267.301 110.88C265.453 110.88 264.541 110.328 264.541 108.528V105.408H262.021ZM278.048 117L283.472 108.984V117H285.992V105.408H283.472L278.144 113.208V105.408H275.624V117H278.048ZM296.369 117C298.625 117 299.873 115.656 299.873 113.856C299.873 112.488 298.937 111.312 297.689 111.024C298.745 110.712 299.633 109.776 299.633 108.384C299.633 106.728 298.409 105.408 296.201 105.408H289.265V117H296.369ZM295.841 114.792H291.785V112.176H295.841C296.777 112.176 297.281 112.8 297.281 113.496C297.281 114.312 296.729 114.792 295.841 114.792ZM295.769 109.968H291.785V107.616H295.769C296.585 107.616 297.065 108.096 297.065 108.816C297.065 109.464 296.585 109.968 295.769 109.968ZM312.599 117V109.32C312.599 106.2 310.343 105.12 307.775 105.12C305.927 105.12 304.247 105.72 302.903 106.992L303.935 108.744C304.943 107.76 306.071 107.28 307.367 107.28C308.975 107.28 310.079 108.096 310.079 109.44V111.168C309.239 110.184 307.895 109.68 306.335 109.68C304.439 109.68 302.303 110.784 302.303 113.448C302.303 116.016 304.439 117.288 306.335 117.288C307.871 117.288 309.215 116.736 310.079 115.752V117H312.599ZM307.319 115.56C305.903 115.56 304.847 114.744 304.847 113.496C304.847 112.224 305.903 111.408 307.319 111.408C308.423 111.408 309.503 111.816 310.079 112.608V114.36C309.503 115.152 308.423 115.56 307.319 115.56ZM321.218 117.288C323.066 117.288 324.77 116.712 325.922 115.608L324.77 113.952C323.954 114.768 322.61 115.224 321.482 115.224C319.298 115.224 317.978 113.784 317.786 112.032H326.738V111.432C326.738 107.784 324.506 105.12 321.026 105.12C317.594 105.12 315.146 107.832 315.146 111.192C315.146 114.864 317.738 117.288 321.218 117.288ZM324.29 110.256H317.762C317.882 108.84 318.866 107.184 321.026 107.184C323.306 107.184 324.242 108.888 324.29 110.256ZM333.858 117V107.616H337.194V105.408H328.026V107.616H331.338V117H333.858ZM344.537 117.288C346.793 117.288 348.161 116.328 348.977 115.224L347.321 113.688C346.673 114.576 345.785 115.056 344.657 115.056C342.545 115.056 341.153 113.448 341.153 111.192C341.153 108.936 342.545 107.352 344.657 107.352C345.785 107.352 346.673 107.808 347.321 108.72L348.977 107.184C348.161 106.08 346.793 105.12 344.537 105.12C341.009 105.12 338.537 107.688 338.537 111.192C338.537 114.72 341.009 117.288 344.537 117.288ZM353.659 117L356.203 112.8H358.867V117H361.387V105.408H354.763C352.267 105.408 350.923 107.112 350.923 109.104C350.923 111.096 352.123 112.344 353.635 112.68L350.779 117H353.659ZM355.075 110.592C354.067 110.592 353.491 109.968 353.491 109.104C353.491 108.24 354.115 107.616 355.075 107.616H358.867V110.592H355.075ZM61.4 149V147.416C66.128 147.032 69.008 144.68 69.008 141.008C69.008 137.384 66.128 134.984 61.4 134.6V132.992H58.592V134.624C53.84 135.008 50.984 137.384 50.984 141.008C50.984 144.68 53.84 147.032 58.592 147.416V149H61.4ZM66.128 141.008C66.128 143.144 64.448 144.584 61.4 144.896V137.12C64.448 137.456 66.128 138.896 66.128 141.008ZM53.864 141.008C53.864 138.896 55.544 137.456 58.592 137.12V144.896C55.544 144.56 53.864 143.12 53.864 141.008ZM76.9996 149.288C78.8476 149.288 80.5516 148.712 81.7036 147.608L80.5516 145.952C79.7356 146.768 78.3916 147.224 77.2636 147.224C75.0796 147.224 73.7596 145.784 73.5676 144.032H82.5196V143.432C82.5196 139.784 80.2876 137.12 76.8076 137.12C73.3756 137.12 70.9276 139.832 70.9276 143.192C70.9276 146.864 73.5196 149.288 76.9996 149.288ZM80.0716 142.256H73.5436C73.6636 140.84 74.6476 139.184 76.8076 139.184C79.0876 139.184 80.0236 140.888 80.0716 142.256ZM83.807 151.952H86.327V149H94.127V151.952H96.647V146.792H95.375V137.408H86.423L85.727 143.048C85.343 146.096 84.791 146.672 83.807 146.912V151.952ZM88.655 139.616H92.855V146.792H86.711C87.527 146.072 88.079 144.944 88.247 143.336L88.655 139.616ZM104.07 149.288C105.918 149.288 107.622 148.712 108.774 147.608L107.622 145.952C106.806 146.768 105.462 147.224 104.334 147.224C102.15 147.224 100.83 145.784 100.638 144.032H109.59V143.432C109.59 139.784 107.358 137.12 103.878 137.12C100.446 137.12 97.9979 139.832 97.9979 143.192C97.9979 146.864 100.59 149.288 104.07 149.288ZM107.142 142.256H100.614C100.734 140.84 101.718 139.184 103.878 139.184C106.158 139.184 107.094 140.888 107.142 142.256ZM118.317 149.288C121.317 149.288 123.453 147.008 123.453 143.192C123.453 139.376 121.317 137.12 118.317 137.12C116.805 137.12 115.461 137.84 114.597 138.992V137.408H112.077V153.416H114.597V147.392C115.533 148.64 116.853 149.288 118.317 149.288ZM117.573 147.056C116.397 147.056 115.149 146.336 114.597 145.496V140.912C115.149 140.048 116.397 139.352 117.573 139.352C119.565 139.352 120.837 140.96 120.837 143.192C120.837 145.448 119.565 147.056 117.573 147.056ZM135.552 149V141.32C135.552 138.2 133.296 137.12 130.728 137.12C128.88 137.12 127.2 137.72 125.856 138.992L126.888 140.744C127.896 139.76 129.024 139.28 130.32 139.28C131.928 139.28 133.032 140.096 133.032 141.44V143.168C132.192 142.184 130.848 141.68 129.288 141.68C127.392 141.68 125.256 142.784 125.256 145.448C125.256 148.016 127.392 149.288 129.288 149.288C130.824 149.288 132.168 148.736 133.032 147.752V149H135.552ZM130.272 147.56C128.856 147.56 127.8 146.744 127.8 145.496C127.8 144.224 128.856 143.408 130.272 143.408C131.376 143.408 132.456 143.816 133.032 144.608V146.36C132.456 147.152 131.376 147.56 130.272 147.56ZM137.62 149.288C140.164 149.288 141.604 147.536 142.06 143.336L142.468 139.616H146.668V149H149.188V137.408H140.236L139.54 143.048C139.156 146.096 138.604 147.224 137.62 147.224V149.288ZM152.46 137.408V149H159.084C161.58 149 162.924 147.296 162.924 145.304C162.924 143.312 161.652 141.608 159.084 141.608H154.98V137.408H152.46ZM158.772 143.816C159.78 143.816 160.356 144.44 160.356 145.304C160.356 146.168 159.78 146.792 158.772 146.792H154.98V143.816H158.772ZM167.941 149V144.176H173.269V149H175.789V137.408H173.269V141.968H167.941V137.408H165.421V149H167.941ZM184.294 149.288C188.014 149.288 190.27 146.528 190.27 143.192C190.27 139.88 188.014 137.12 184.294 137.12C180.622 137.12 178.342 139.88 178.342 143.192C178.342 146.528 180.622 149.288 184.294 149.288ZM184.294 147.056C182.158 147.056 180.958 145.256 180.958 143.192C180.958 141.152 182.158 139.352 184.294 139.352C186.454 139.352 187.654 141.152 187.654 143.192C187.654 145.256 186.454 147.056 184.294 147.056ZM195.244 149L200.668 140.984V149H203.188V137.408H200.668L195.34 145.208V137.408H192.82V149H195.244ZM202.204 134.072L201.052 133.112C200.356 134.096 199.276 134.696 198.004 134.696C196.684 134.696 195.628 134.072 194.932 133.112L193.78 134.072C194.764 135.368 196.3 136.184 198.004 136.184C199.732 136.184 201.244 135.368 202.204 134.072ZM217.904 149.288C220.16 149.288 221.528 148.328 222.344 147.224L220.688 145.688C220.04 146.576 219.152 147.056 218.024 147.056C215.912 147.056 214.52 145.448 214.52 143.192C214.52 140.936 215.912 139.352 218.024 139.352C219.152 139.352 220.04 139.808 220.688 140.72L222.344 139.184C221.528 138.08 220.16 137.12 217.904 137.12C214.376 137.12 211.904 139.688 211.904 143.192C211.904 146.72 214.376 149.288 217.904 149.288ZM223.354 149.288C225.898 149.288 227.338 147.536 227.794 143.336L228.202 139.616H232.402V149H234.922V137.408H225.97L225.274 143.048C224.89 146.096 224.338 147.224 223.354 147.224V149.288ZM237.691 153.536C238.051 153.632 238.747 153.704 239.107 153.704C240.907 153.68 242.299 153.056 243.091 151.088L248.682 137.408H245.971L242.587 146.096L239.203 137.408H236.514L241.267 149.144L240.691 150.464C240.355 151.232 239.827 151.472 239.035 151.472C238.747 151.472 238.339 151.4 238.075 151.28L237.691 153.536ZM251.945 149L255.497 144.224L256.145 144.896V149H258.665V144.896L259.313 144.224L262.865 149H266.033L261.113 142.664L265.937 137.408H262.817L258.665 141.944V137.408H256.145V141.944L251.993 137.408H248.873L253.697 142.664L248.777 149H251.945ZM272.934 147.056C270.798 147.056 269.598 145.256 269.598 143.144C269.598 141.152 270.798 139.352 272.934 139.352C275.094 139.352 276.294 141.152 276.294 143.144C276.294 145.256 275.094 147.056 272.934 147.056ZM272.934 149.288C276.702 149.288 278.886 146.432 278.886 143.168C278.886 139.952 276.702 137.12 273.414 137.12C271.734 137.12 270.174 137.888 269.238 139.16C269.55 137.744 270.75 136.376 273.534 136.064C275.454 135.848 278.478 135.248 278.478 132.992H276.006C276.006 133.424 275.31 133.712 272.838 134.072C268.95 134.552 267.006 137.024 267.006 142.664C267.006 146.432 269.19 149.288 272.934 149.288ZM286.786 149.288C290.506 149.288 292.762 146.528 292.762 143.192C292.762 139.88 290.506 137.12 286.786 137.12C283.114 137.12 280.834 139.88 280.834 143.192C280.834 146.528 283.114 149.288 286.786 149.288ZM286.786 147.056C284.65 147.056 283.45 145.256 283.45 143.192C283.45 141.152 284.65 139.352 286.786 139.352C288.946 139.352 290.146 141.152 290.146 143.192C290.146 145.256 288.946 147.056 286.786 147.056ZM297.736 149L303.16 140.984V149H305.68V137.408H303.16L297.832 145.208V137.408H295.312V149H297.736ZM304.696 134.072L303.544 133.112C302.848 134.096 301.768 134.696 300.496 134.696C299.176 134.696 298.12 134.072 297.424 133.112L296.272 134.072C297.256 135.368 298.792 136.184 300.496 136.184C302.224 136.184 303.736 135.368 304.696 134.072ZM58.736 181C60.992 181 62.24 179.656 62.24 177.856C62.24 176.488 61.304 175.312 60.056 175.024C61.112 174.712 62 173.776 62 172.384C62 170.728 60.776 169.408 58.568 169.408H51.632V181H58.736ZM58.208 178.792H54.152V176.176H58.208C59.144 176.176 59.648 176.8 59.648 177.496C59.648 178.312 59.096 178.792 58.208 178.792ZM58.136 173.968H54.152V171.616H58.136C58.952 171.616 59.432 172.096 59.432 172.816C59.432 173.464 58.952 173.968 58.136 173.968ZM70.5984 181.288C74.3184 181.288 76.5744 178.528 76.5744 175.192C76.5744 171.88 74.3184 169.12 70.5984 169.12C66.9264 169.12 64.6464 171.88 64.6464 175.192C64.6464 178.528 66.9264 181.288 70.5984 181.288ZM70.5984 179.056C68.4624 179.056 67.2624 177.256 67.2624 175.192C67.2624 173.152 68.4624 171.352 70.5984 171.352C72.7584 171.352 73.9584 173.152 73.9584 175.192C73.9584 177.256 72.7584 179.056 70.5984 179.056ZM81.5482 181L86.9722 172.984V181H89.4922V169.408H86.9722L81.6442 177.208V169.408H79.1242V181H81.5482ZM88.5082 166.072L87.3562 165.112C86.6602 166.096 85.5802 166.696 84.3082 166.696C82.9882 166.696 81.9322 166.072 81.2362 165.112L80.0842 166.072C81.0682 167.368 82.6042 168.184 84.3082 168.184C86.0362 168.184 87.5482 167.368 88.5082 166.072ZM98.0448 181.288C100.301 181.288 101.669 180.328 102.485 179.224L100.829 177.688C100.181 178.576 99.2928 179.056 98.1648 179.056C96.0528 179.056 94.6608 177.448 94.6608 175.192C94.6608 172.936 96.0528 171.352 98.1648 171.352C99.2928 171.352 100.181 171.808 100.829 172.72L102.485 171.184C101.669 170.08 100.301 169.12 98.0448 169.12C94.5168 169.12 92.0448 171.688 92.0448 175.192C92.0448 178.72 94.5168 181.288 98.0448 181.288ZM115.543 181L110.623 174.664L115.447 169.408H112.327L107.215 175V169.408H104.695V181H107.215V177.88L108.823 176.224L112.375 181H115.543ZM126.011 181V176.176H131.339V181H133.859V169.408H131.339V173.968H126.011V169.408H123.491V181H126.011ZM146.732 181V173.32C146.732 170.2 144.476 169.12 141.908 169.12C140.06 169.12 138.38 169.72 137.036 170.992L138.068 172.744C139.076 171.76 140.204 171.28 141.5 171.28C143.108 171.28 144.212 172.096 144.212 173.44V175.168C143.372 174.184 142.028 173.68 140.468 173.68C138.572 173.68 136.436 174.784 136.436 177.448C136.436 180.016 138.572 181.288 140.468 181.288C142.004 181.288 143.348 180.736 144.212 179.752V181H146.732ZM141.452 179.56C140.036 179.56 138.98 178.744 138.98 177.496C138.98 176.224 140.036 175.408 141.452 175.408C142.556 175.408 143.636 175.816 144.212 176.608V178.36C143.636 179.152 142.556 179.56 141.452 179.56ZM159.119 183.952H161.639V178.792H160.367V169.408H157.847V178.792H152.519V169.408H149.999V181H159.119V183.952ZM166.134 181L171.558 172.984V181H174.078V169.408H171.558L166.23 177.208V169.408H163.71V181H166.134ZM182.583 181.288C186.303 181.288 188.559 178.528 188.559 175.192C188.559 171.88 186.303 169.12 182.583 169.12C178.911 169.12 176.631 171.88 176.631 175.192C176.631 178.528 178.911 181.288 182.583 181.288ZM182.583 179.056C180.447 179.056 179.247 177.256 179.247 175.192C179.247 173.152 180.447 171.352 182.583 171.352C184.743 171.352 185.943 173.152 185.943 175.192C185.943 177.256 184.743 179.056 182.583 179.056ZM193.629 181V176.176H198.957V181H201.477V169.408H198.957V173.968H193.629V169.408H191.109V181H193.629ZM214.349 181V173.32C214.349 170.2 212.093 169.12 209.525 169.12C207.677 169.12 205.997 169.72 204.653 170.992L205.685 172.744C206.693 171.76 207.821 171.28 209.117 171.28C210.725 171.28 211.829 172.096 211.829 173.44V175.168C210.989 174.184 209.645 173.68 208.085 173.68C206.189 173.68 204.053 174.784 204.053 177.448C204.053 180.016 206.189 181.288 208.085 181.288C209.621 181.288 210.965 180.736 211.829 179.752V181H214.349ZM209.069 179.56C207.653 179.56 206.597 178.744 206.597 177.496C206.597 176.224 207.653 175.408 209.069 175.408C210.173 175.408 211.253 175.816 211.829 176.608V178.36C211.253 179.152 210.173 179.56 209.069 179.56ZM216.416 181.288C218.96 181.288 220.4 179.536 220.856 175.336L221.264 171.616H225.464V181H227.984V169.408H219.032L218.336 175.048C217.952 178.096 217.4 179.224 216.416 179.224V181.288ZM231.257 169.408V181H237.881C240.377 181 241.721 179.296 241.721 177.304C241.721 175.312 240.449 173.608 237.881 173.608H233.777V169.408H231.257ZM237.569 175.816C238.577 175.816 239.153 176.44 239.153 177.304C239.153 178.168 238.577 178.792 237.569 178.792H233.777V175.816H237.569ZM246.738 181V176.176H252.066V181H254.586V169.408H252.066V173.968H246.738V169.408H244.218V181H246.738ZM263.091 181.288C266.811 181.288 269.067 178.528 269.067 175.192C269.067 171.88 266.811 169.12 263.091 169.12C259.419 169.12 257.139 171.88 257.139 175.192C257.139 178.528 259.419 181.288 263.091 181.288ZM263.091 179.056C260.955 179.056 259.755 177.256 259.755 175.192C259.755 173.152 260.955 171.352 263.091 171.352C265.251 171.352 266.451 173.152 266.451 175.192C266.451 177.256 265.251 179.056 263.091 179.056ZM274.04 181L279.464 172.984V181H281.984V169.408H279.464L274.136 177.208V169.408H271.616V181H274.04ZM281 166.072L279.848 165.112C279.152 166.096 278.072 166.696 276.8 166.696C275.48 166.696 274.424 166.072 273.728 165.112L272.576 166.072C273.56 167.368 275.096 168.184 276.8 168.184C278.528 168.184 280.04 167.368 281 166.072ZM60.416 201.408H51.632V213H54.152V203.616H60.416V201.408ZM69.5876 213C71.8436 213 73.0916 211.656 73.0916 209.856C73.0916 208.488 72.1556 207.312 70.9076 207.024C71.9636 206.712 72.8516 205.776 72.8516 204.384C72.8516 202.728 71.6276 201.408 69.4196 201.408H62.4836V213H69.5876ZM69.0596 210.792H65.0036V208.176H69.0596C69.9956 208.176 70.4996 208.8 70.4996 209.496C70.4996 210.312 69.9476 210.792 69.0596 210.792ZM68.9876 205.968H65.0036V203.616H68.9876C69.8036 203.616 70.2836 204.096 70.2836 204.816C70.2836 205.464 69.8036 205.968 68.9876 205.968ZM85.8179 213V205.32C85.8179 202.2 83.5619 201.12 80.9939 201.12C79.1459 201.12 77.4659 201.72 76.1219 202.992L77.1539 204.744C78.1619 203.76 79.2899 203.28 80.5859 203.28C82.1939 203.28 83.2979 204.096 83.2979 205.44V207.168C82.4579 206.184 81.1139 205.68 79.5539 205.68C77.6579 205.68 75.5219 206.784 75.5219 209.448C75.5219 212.016 77.6579 213.288 79.5539 213.288C81.0899 213.288 82.4339 212.736 83.2979 211.752V213H85.8179ZM80.5379 211.56C79.1219 211.56 78.0659 210.744 78.0659 209.496C78.0659 208.224 79.1219 207.408 80.5379 207.408C81.6419 207.408 82.7219 207.816 83.2979 208.608V210.36C82.7219 211.152 81.6419 211.56 80.5379 211.56ZM95.3251 213.288C98.3251 213.288 100.461 211.008 100.461 207.192C100.461 203.376 98.3251 201.12 95.3251 201.12C93.8131 201.12 92.4691 201.84 91.6051 202.992V201.408H89.0851V217.416H91.6051V211.392C92.5411 212.64 93.8611 213.288 95.3251 213.288ZM94.5811 211.056C93.4051 211.056 92.1571 210.336 91.6051 209.496V204.912C92.1571 204.048 93.4051 203.352 94.5811 203.352C96.5731 203.352 97.8451 204.96 97.8451 207.192C97.8451 209.448 96.5731 211.056 94.5811 211.056ZM101.76 215.952H104.28V213H112.08V215.952H114.6V210.792H113.328V201.408H104.376L103.68 207.048C103.296 210.096 102.744 210.672 101.76 210.912V215.952ZM106.608 203.616H110.808V210.792H104.664C105.48 210.072 106.032 208.944 106.2 207.336L106.608 203.616ZM119.095 213L124.519 204.984V213H127.039V201.408H124.519L119.191 209.208V201.408H116.671V213H119.095ZM132.736 213L138.16 204.984V213H140.68V201.408H138.16L132.832 209.208V201.408H130.312V213H132.736ZM152.996 213V207.024H157.22C160.556 207.024 162.452 204.72 162.452 202.008C162.452 199.296 160.58 196.992 157.22 196.992H150.188V213H152.996ZM156.836 204.552H152.996V199.464H156.836C158.42 199.464 159.572 200.472 159.572 202.008C159.572 203.544 158.42 204.552 156.836 204.552ZM169.598 213.288C173.318 213.288 175.574 210.528 175.574 207.192C175.574 203.88 173.318 201.12 169.598 201.12C165.926 201.12 163.646 203.88 163.646 207.192C163.646 210.528 165.926 213.288 169.598 213.288ZM169.598 211.056C167.462 211.056 166.262 209.256 166.262 207.192C166.262 205.152 167.462 203.352 169.598 203.352C171.758 203.352 172.958 205.152 172.958 207.192C172.958 209.256 171.758 211.056 169.598 211.056ZM183.404 213.288C185.66 213.288 187.028 212.328 187.844 211.224L186.188 209.688C185.54 210.576 184.652 211.056 183.524 211.056C181.412 211.056 180.02 209.448 180.02 207.192C180.02 204.936 181.412 203.352 183.524 203.352C184.652 203.352 185.54 203.808 186.188 204.72L187.844 203.184C187.028 202.08 185.66 201.12 183.404 201.12C179.876 201.12 177.404 203.688 177.404 207.192C177.404 210.72 179.876 213.288 183.404 213.288ZM195.334 213.288C197.59 213.288 198.958 212.328 199.774 211.224L198.118 209.688C197.47 210.576 196.582 211.056 195.454 211.056C193.342 211.056 191.95 209.448 191.95 207.192C191.95 204.936 193.342 203.352 195.454 203.352C196.582 203.352 197.47 203.808 198.118 204.72L199.774 203.184C198.958 202.08 197.59 201.12 195.334 201.12C191.806 201.12 189.334 203.688 189.334 207.192C189.334 210.72 191.806 213.288 195.334 213.288ZM204.408 213L209.832 204.984V213H212.352V201.408H209.832L204.504 209.208V201.408H201.984V213H204.408ZM218.048 213L223.472 204.984V213H225.992V201.408H223.472L218.144 209.208V201.408H215.624V213H218.048Z" fill="#868FA4"/>
</g>
<defs>
<clipPath id="clip0_137_535">
<rect width="440" height="266" fill="white"/>
</clipPath>
<clipPath id="clip1_137_535">
<rect width="50" height="60" fill="white" transform="translate(336 167)"/>
</clipPath>
</defs>
</svg>
