<svg width="1920" height="232" viewBox="0 0 1920 232" fill="none" xmlns="http://www.w3.org/2000/svg">
<g clip-path="url(#clip0_37_423)">
<rect width="1920" height="232" fill="#579D45"/>
<g opacity="0.6">
<path opacity="0.15" d="M102 87.7043L114.13 97.8938L190.309 78.9704M120.681 78L173.084 83.3373L144.214 104.687" stroke="white" stroke-width="6" stroke-miterlimit="10" stroke-linecap="round" stroke-linejoin="round"/>
</g>
<g opacity="0.6">
<path opacity="0.15" d="M892 95.9469L903.888 106.136L980.067 87.213M910.681 86L963.084 91.3373L934.214 112.93" stroke="white" stroke-width="6" stroke-miterlimit="10" stroke-linecap="round" stroke-linejoin="round"/>
</g>
<g opacity="0.6">
<path opacity="0.15" d="M577 55.9469L589.13 66.1364L665.309 47.213M595.681 46L648.084 51.3374L619.456 72.9295" stroke="white" stroke-width="6" stroke-miterlimit="10" stroke-linecap="round" stroke-linejoin="round"/>
</g>
<g opacity="0.6">
<path opacity="0.15" d="M24.2607 185.947L36.3911 196.136L112.57 176.97M43.1842 176L95.5875 181.337L66.7171 202.687" stroke="white" stroke-width="6" stroke-miterlimit="10" stroke-linecap="round" stroke-linejoin="round"/>
</g>
<g opacity="0.6">
<path opacity="0.15" d="M620.834 205.601L632.965 215.79L709.144 196.624M639.758 195.654L692.161 200.991L663.291 222.583" stroke="white" stroke-width="6" stroke-miterlimit="10" stroke-linecap="round" stroke-linejoin="round"/>
</g>
<g opacity="0.6">
<path opacity="0.15" d="M1585.44 31.968L1597.57 42.1576L1673.75 23.2341M1604.13 22.2637L1656.53 27.6011L1627.9 48.9506" stroke="white" stroke-width="6" stroke-miterlimit="10" stroke-linecap="round" stroke-linejoin="round"/>
</g>
<g opacity="0.6">
<path opacity="0.15" d="M1057.53 212.735L1069.66 222.924L1145.6 203.758M1076.21 202.788L1128.61 208.125L1099.74 229.475" stroke="white" stroke-width="6" stroke-miterlimit="10" stroke-linecap="round" stroke-linejoin="round"/>
</g>
<g opacity="0.6">
<path opacity="0.15" d="M1736.16 185.297L1748.04 195.487L1824.22 176.563M1754.84 175.593L1807.24 180.93L1778.37 202.28" stroke="white" stroke-width="6" stroke-miterlimit="10" stroke-linecap="round" stroke-linejoin="round"/>
</g>
<g opacity="0.6">
<path opacity="0.15" d="M1270 136.704L1282.13 146.894L1358.31 127.97M1288.92 127L1341.33 132.337L1312.46 153.687" stroke="white" stroke-width="6" stroke-miterlimit="10" stroke-linecap="round" stroke-linejoin="round"/>
</g>
</g>
<defs>
<clipPath id="clip0_37_423">
<rect width="1920" height="232" fill="white"/>
</clipPath>
</defs>
</svg>
